<svg width="335" height="348" viewBox="0 0 335 348" fill="none" xmlns="http://www.w3.org/2000/svg">
<path d="M114.077 265.781C117.127 264.7 120.251 263.842 123.426 263.216L123.81 264.627C123.853 264.794 123.954 264.939 124.095 265.036C124.237 265.134 124.408 265.177 124.579 265.158L137.148 263.693C140.606 255.796 146.954 243.833 147.046 243.65C146.954 240.664 147.046 238.154 147.046 235.296C139.855 237.97 126.555 243.045 119.602 246.288C119.445 246.389 119.324 246.538 119.255 246.712C119.186 246.887 119.173 247.077 119.218 247.259C119.218 247.259 119.346 247.717 119.511 248.377C116.108 248.377 105.917 247.882 103.465 250.209C103.084 250.74 102.897 251.387 102.935 252.041C102.788 254.569 104.051 274.209 106.063 279.98C107.106 283.003 109.302 282.673 110.802 279.778C112.538 275.42 113.653 270.836 114.114 266.166C114.114 265.928 114.059 265.946 114.077 265.781ZM111.973 249.384C114.205 249.201 114.9 249.238 119.694 249.091C120.554 252.352 122.328 259.058 123.243 262.484C120.015 262.984 116.829 263.725 113.711 264.7C112.739 259.647 112.158 254.526 111.973 249.384Z" fill="black"/>
<path d="M282.472 89.0408C282.929 88.3996 282.343 87.5752 281.849 86.934C283.249 85.4929 284.801 84.2088 286.478 83.1049C289.31 81.6922 291.897 79.8372 294.144 77.6087C295.077 76.6377 296.834 74.6407 296.175 73.4682C295.516 72.2957 294.346 72.2224 292.754 72.9002C293.443 72.1754 294.007 71.339 294.419 70.4269C294.931 68.9979 293.723 67.8437 291.107 68.9063C292.059 67.3857 292.278 65.7918 290.668 65.0223C289.369 64.3994 287.466 65.8834 286.369 66.8544C284.213 68.7404 282.189 70.7727 280.313 72.9369C279.16 70.5186 277.33 67.7338 275.043 68.6132C272.756 69.4926 274.531 73.4315 275.702 75.5751L271.549 78.4514C270.921 78.112 270.212 77.9538 269.5 77.9934C264.779 78.7995 243.099 95.3249 240.903 95.3249C239.22 95.3249 215.18 83.7828 194.395 80.4484C194.356 80.3235 194.281 80.2129 194.181 80.1286C194.08 80.0443 193.958 79.9901 193.828 79.9721C190.203 79.3525 186.528 79.0767 182.851 79.1476C182.74 79.1553 182.631 79.1869 182.534 79.2406C182.435 79.2945 182.351 79.3691 182.284 79.4591H180.747C180.381 77.9751 179.027 74.5491 178.551 73.23C179.795 72.1491 181.515 71.5995 182.412 69.859C184.058 66.6345 183.985 61.0284 183.528 57.4375C185.595 55.8619 185.65 53.3337 185.174 50.7504C184.991 49.7062 184.424 47.3428 183.546 46.7565C183.052 46.4267 182.009 46.7565 181.113 47.0863C180.216 44.9977 180.216 45.9504 180.582 45.1076C180.753 44.7192 180.852 44.3035 180.875 43.8802C181.845 44.1733 183.857 42.2313 183.162 39.6664C182.798 38.7483 182.351 37.8653 181.826 37.0282C182.082 36.4053 182.631 35.6541 180.911 33.364C180.171 32.5639 179.209 32.0026 178.149 31.7518H177.307C176.7 30.8694 175.809 30.2225 174.782 29.9197C173.234 29.524 171.59 29.7545 170.208 30.561C169.842 30.8358 169.55 31.2022 169.184 31.4587C168.356 30.9557 167.408 30.6899 166.439 30.6899C165.471 30.6899 164.523 30.9557 163.695 31.4587C163.21 31.6489 162.77 31.9353 162.399 32.3004C162.029 32.6658 161.734 33.1022 161.536 33.5839C160.64 33.2741 159.688 33.1548 158.743 33.2338C157.799 33.3127 156.88 33.5879 156.047 34.0419C152.887 35.7581 150.522 38.6451 149.461 42.0847C149.432 42.6034 149.432 43.1233 149.461 43.642H149.26C146.515 43.2389 143.021 49.7611 145.82 54.836C146.149 55.4406 146.57 56.0085 146.973 56.668C148.144 58.5001 147.686 59.0497 150.303 61.2849C151.071 61.9444 151.199 61.8895 151.675 62.2925C152.15 62.6956 151.967 62.494 152.242 63.52C152.391 64.1243 152.66 64.6932 153.03 65.1932C153.401 65.6932 153.867 66.1146 154.401 66.433C154.596 68.2251 155.359 69.9073 156.578 71.2331C156.964 71.6661 157.415 72.0365 157.914 72.3323C158.048 72.4082 158.199 72.4522 158.353 72.4605C158.902 75.8682 159.579 80.3018 159.871 82.1889L158.243 83.0683C156.113 83.9267 154.041 84.9243 152.041 86.0546C151.884 86.1635 151.773 86.3264 151.73 86.5126C149.79 87.5385 147.961 88.5095 146.918 89.1324C132.391 97.7615 91.1339 154.648 90.713 157.249C90.6668 157.399 90.6668 157.558 90.713 157.707C91.3045 158.652 92.025 159.509 92.8537 160.254C92.5985 160.721 92.2915 161.156 91.9389 161.554C88.2797 163.954 82.7913 167.527 79.8457 170.715C79.6388 170.9 79.4837 171.135 79.3959 171.397C79.3078 171.66 79.2895 171.941 79.343 172.212C79.3966 172.484 79.52 172.738 79.7013 172.949C79.8826 173.158 80.1151 173.316 80.3759 173.408C80.9248 173.591 81.0166 173.536 84.5843 171.576C83.6036 172.437 82.8016 173.483 82.2241 174.654C81.9863 175.661 82.9011 176.248 84.0537 176.064C84.702 175.894 85.3194 175.622 85.8833 175.258C85.553 175.768 85.3777 176.364 85.3777 176.972C85.3777 177.579 85.553 178.174 85.8833 178.684C87.7129 180.993 92.5064 173.719 95.0312 171.924C96.0558 173.225 97.4459 176.266 99.6597 175.46C101.581 174.745 99.4767 170.513 99.6597 169.286C100.404 168.57 101.199 167.909 102.038 167.307C103.45 168.354 105.063 169.098 106.777 169.487C109.796 169.487 141.301 137.646 143.698 135.099C142.838 143.197 138.502 177.952 139.417 184.712C139.837 187.771 147.174 188.211 150.266 188.376C149.333 210.361 148.711 243.668 148.546 244.016C143.698 254.477 142.38 257.335 140.752 260.505C137.788 266.184 125.31 287.143 123.902 291.907C123.7 292.658 123.682 292.951 124.469 294.343C122.111 296.826 119.923 299.464 117.919 302.24C116.913 304.072 121.23 321.147 124.286 327.192C124.981 328.548 126.115 330.637 127.634 330.584C132.208 330.417 132.19 313.965 132.062 309.366C132.061 309.224 132.009 309.089 131.915 308.982C132.745 307.742 133.649 306.556 134.623 305.427C135.205 305.829 135.817 306.183 136.453 306.49C137.075 306.765 137.77 306.288 138.282 305.867C144.375 301.067 177.234 260.065 184.278 240.718C187.48 231.888 191.743 219.686 192.95 211.039C193.688 205.572 193.757 200.034 193.151 194.55C193.151 194.472 193.182 194.398 193.237 194.343C193.292 194.288 193.366 194.257 193.444 194.257C193.522 194.257 193.597 194.288 193.652 194.343C193.707 194.398 193.737 194.472 193.737 194.55C194.653 200.065 194.832 205.679 194.267 211.24C192.913 223.24 183.455 248.248 178.405 257.445C182.759 256.639 191.614 254.88 195.896 253.598C210.166 249.256 223.339 236.303 224.492 221.756C224.866 214.903 224.866 208.036 224.492 201.182C224.369 191.721 223.141 182.307 220.833 173.133C224.712 171.026 228.261 168.553 229.414 166.281C231.884 161.426 225.352 133.487 223.925 125.646C231.737 126.507 245.038 128.064 251.241 123.209C258.339 117.493 273.671 101.407 282.472 89.0408ZM131.074 308.359C127.78 306.362 123.17 301.617 122.475 297.898C123.225 296.945 124.011 296.066 124.743 295.076C127.223 298.866 130.315 302.215 133.891 304.988C132.887 306.055 131.946 307.18 131.074 308.359ZM276.525 76.0881C276.62 76.0278 276.689 75.9332 276.715 75.8242C276.742 75.715 276.727 75.5997 276.672 75.5018C276.031 74.3109 274.11 70.1155 275.446 69.6392C276.214 69.346 276.891 69.8224 277.458 70.4636C278.325 71.5638 278.998 72.8027 279.453 74.1277C279.486 74.2353 279.549 74.3319 279.634 74.4069C279.718 74.4818 279.822 74.5321 279.931 74.5531C280.043 74.5738 280.157 74.5638 280.264 74.5245C280.369 74.4852 280.462 74.4175 280.532 74.3293C282.362 72.2957 286.643 67.6605 289.058 66.4147C290.888 65.462 291.327 67.2208 286.844 71.3247C285.815 72.1108 284.826 72.9485 283.88 73.8346C283.828 73.9066 283.799 73.9932 283.799 74.0821C283.799 74.1707 283.828 74.2573 283.88 74.3293C283.88 74.8056 284.265 75.3369 284.923 74.8422C286.514 73.4442 288.195 72.1531 289.955 70.9766C290.853 70.3377 291.897 69.9343 292.992 69.804C292.443 71.4895 287.338 76.0697 286.899 76.5827C286.76 76.708 286.675 76.8825 286.663 77.0694C286.652 77.2563 286.713 77.4405 286.835 77.582C286.959 77.7236 287.131 77.8115 287.317 77.8269C287.505 77.8422 287.689 77.7836 287.832 77.6636C289.863 76.3445 293.412 73.2667 294.638 73.7247C295.864 74.1827 292.223 77.5904 291.308 78.3965C286.058 82.9584 287.411 80.027 281.337 86.2194C278.694 83.3191 275.658 80.8032 272.317 78.7446L276.525 76.0881ZM197.03 163.716C196.719 161.188 196.335 158.458 195.859 155.619L196.646 154.574C200.305 149.866 201.403 142.373 201.055 136.492C203.013 145.084 204.568 153.53 205.757 161.921L197.03 163.716ZM169.824 100.986C165.012 97.3218 157.273 91.0012 152.772 86.6775L160.091 83.0133C166.812 89.299 172.564 96.5474 177.161 104.522C184.191 117.453 189.405 131.294 192.657 145.652L166.568 108.699L169.971 101.627C170.016 101.518 170.025 101.398 169.999 101.283C169.974 101.168 169.913 101.065 169.824 100.986ZM182.192 80.2102C182.302 80.4118 183.564 83.1049 185.485 87.8133C185.485 88.0149 185.138 92.5951 184.973 94.2073C182.638 93.2806 180.436 92.0484 178.423 90.5431C178.826 88.9492 180.637 81.7125 180.765 80.082L182.192 80.2102ZM175.697 99.8867C175.825 99.557 175.953 99.1173 176.1 98.6043L177.325 99.2455C178.021 99.7035 177.746 98.3111 178.368 102.342C178.368 103.02 178.551 103.771 178.588 104.595C177.746 103.075 176.703 101.444 175.715 99.8867H175.697ZM174.673 98.3478C171.216 93.4385 167.281 88.8849 162.927 84.7538L176.703 90.7447C176.173 92.0088 175.404 95.8745 174.691 98.3478H174.673ZM188.742 109.084C186.912 104.082 185.504 98.4944 184.808 97.0287C184.85 96.5717 184.85 96.1117 184.808 95.6546C185.074 95.7532 185.35 95.8149 185.632 95.8378C185.809 95.8398 185.979 95.7779 186.114 95.6633C186.249 95.549 186.338 95.3898 186.364 95.2149C186.51 94.6104 186.748 91.5508 186.784 90.8729C192.107 104.329 196.55 118.117 200.085 132.15C189.748 110.128 191.34 116.504 188.76 109.084H188.742ZM203.873 144.058C199.701 124.034 192.365 99.0623 184.022 80.5583C187.086 80.56 190.145 80.8052 193.17 81.2912C194.725 95.2149 193.426 94.7386 194.469 95.2882C195.512 95.8378 201.787 98.3661 202.72 98.7508C202.629 100.162 203.946 140.504 203.891 144.058H203.873ZM182.814 47.929C183.769 50.0133 184.104 52.3277 183.784 54.5978C183.635 55.1757 183.329 55.7007 182.9 56.1144C182.47 56.5285 181.935 56.8149 181.352 56.9422C180.771 57.0694 180.164 57.0325 179.602 56.8353C179.039 56.6381 178.544 56.2883 178.167 55.8253C177.294 53.9839 176.638 52.0472 176.209 50.0542C176.703 49.413 181.973 48.1306 182.814 47.929ZM157.639 66.2498C156.972 65.945 156.287 65.6762 155.59 65.4437C155.122 65.2512 154.706 64.954 154.371 64.575C154.035 64.1959 153.791 63.7452 153.657 63.2569C153.523 62.7689 153.501 62.2565 153.596 61.7589C153.69 61.2616 153.896 60.7922 154.2 60.3872C155.352 59.4162 156.395 59.4711 157.346 60.9185C157.95 62.036 157.932 62.1276 158.206 62.2376C158.286 62.2722 158.371 62.2899 158.456 62.2889C158.542 62.2879 158.627 62.2685 158.705 62.2322C158.783 62.1959 158.853 62.143 158.908 62.0777C158.964 62.0124 159.005 61.9358 159.03 61.8528C159.301 60.7063 159.344 59.5171 159.158 58.3536C158.938 57.0894 158.902 51.4833 158.938 51.3001C159.473 51.5822 160.072 51.7151 160.676 51.6848C163.988 51.5566 164.646 49.8527 165.964 48.4603C167.482 48.6069 167.793 49.3397 169.513 48.4603C170.318 48.0017 171.058 47.4347 171.709 46.7748C172.235 46.9904 172.743 47.2478 173.227 47.5443C174.324 48.0723 175.56 48.2345 176.755 48.007C177.951 47.7795 179.042 47.1742 179.869 46.2802C180.07 46.6649 180.253 47.0496 180.417 47.4527C178.736 47.9753 177.153 48.7738 175.734 49.8161C175.423 50.2008 175.88 52.2894 175.99 52.784C174.458 52.9772 172.974 53.4556 171.617 54.1947C171.343 53.2421 170.739 51.4649 169.788 50.9703C169.501 50.8827 169.196 50.8827 168.909 50.9703C167.263 51.2268 161.353 53.0039 160.64 53.9749C160.018 54.6528 161.792 59.8925 162.341 60.7536C164.445 64.0147 170.611 63.062 171.764 59.2513C172.049 57.9725 172.049 56.6461 171.764 55.3673C172.294 55.3673 173.886 54.7993 174.069 54.7444C175.331 57.5841 175.697 57.749 177.161 60.8085C176.96 60.9734 176.63 61.2482 176.356 61.4314C175.057 62.2925 174.782 62.146 174.856 62.5124C174.877 62.585 174.924 62.6476 174.988 62.6879C175.052 62.7286 175.129 62.7442 175.203 62.7322C175.972 62.6223 176.722 62.4131 177.435 62.1093C177.862 61.9498 178.214 61.636 178.423 61.2299C178.935 60.0757 176.1 55.7337 174.984 54.4329C175.203 54.4329 175.715 54.0665 176.1 53.865C176.612 55.9169 176.96 57.5291 178.935 58.3352C179.507 58.5511 180.116 58.6494 180.725 58.6244C181.335 58.5991 181.933 58.4508 182.485 58.1887C182.778 61.4131 182.723 66.6529 181.186 69.5109C180.399 70.9949 178.46 71.5628 177.216 72.7903C176.85 73.1384 177.088 73.6331 177.216 74.1644C179.247 79.8255 179.283 79.8072 179.173 80.54C178.635 83.5816 177.884 86.5815 176.923 89.5172C176.466 89.3157 171.324 86.5859 161.262 82.6652C160.951 80.595 159.286 69.5475 158.755 67.5139C158.792 66.7994 158.7 66.6345 157.639 66.1582V66.2498ZM170.446 58.7749C169.861 60.7719 167.098 61.633 165.122 61.0834C163.146 60.5337 163.018 59.5261 162.085 57.1444C161.648 56.2347 161.346 55.2653 161.189 54.268C161.792 53.6085 168.397 52.2527 169.22 52.1245C170.375 54.1028 170.809 56.4209 170.446 58.6833V58.7749ZM98.855 168.773C98.1598 169.451 99.0925 171.667 99.2389 173.591C99.2389 173.756 99.2389 174.471 99.1291 174.526C98.1229 174.855 97.1898 173.335 96.6226 172.419C96.0554 171.503 95.4883 170.257 94.5918 170.587C92.7622 171.448 88.5176 177.09 86.8526 177.677C86.011 176.064 90.8232 171.466 90.9878 171.209C91.0583 171.092 91.0953 170.956 91.0946 170.82C91.0939 170.683 91.0557 170.547 90.9842 170.431C90.9123 170.313 90.8099 170.219 90.6881 170.155C90.566 170.092 90.4293 170.065 90.2926 170.074C89.9633 170.074 89.7434 170.367 89.2311 170.825C87.673 172.347 85.8896 173.62 83.9436 174.599C85.708 172.572 87.5961 170.657 89.597 168.864C89.6961 168.762 89.7657 168.636 89.7986 168.498C89.7986 168.498 89.4144 167.527 88.6643 167.912C87.6031 168.498 82.4433 171.484 80.8153 172.254C80.5958 172.107 80.7239 171.887 80.8153 171.667C83.3947 168.498 89.0668 164.651 92.5426 162.214C92.9508 161.793 93.2904 161.312 93.5489 160.785C95.9566 163.028 98.5247 165.092 101.233 166.959C100.399 167.507 99.6042 168.113 98.855 168.773ZM141.429 185.426C141.027 185.17 140.734 184.932 140.679 184.602C139.673 177.127 145.271 134.769 145.18 133.102C145.18 133.004 145.16 132.908 145.122 132.817C145.085 132.728 145.029 132.646 144.959 132.578C144.889 132.509 144.806 132.456 144.715 132.42C144.625 132.384 144.527 132.367 144.43 132.369C143.496 132.369 145.143 132.369 121.835 154.721C120.298 156.168 108.551 167.417 106.594 168.168C103.904 167.967 93.7867 159.887 92.1401 157.341C95.3236 150.892 133.928 97.8348 147.284 89.7187C148.308 89.0958 150.065 88.1248 151.986 87.0988C152.651 87.7264 153.366 88.296 154.126 88.8027C158.371 92.8332 164.281 97.8531 168.763 101.627L165.269 108.571C165.215 108.663 165.188 108.767 165.188 108.873C165.188 108.979 165.215 109.083 165.269 109.175C193.645 149.939 193.225 149.481 193.407 149.481C195.226 158.901 196.358 168.44 196.792 178.025C196.792 180.608 196.792 180.388 196.902 180.205C197.012 180.022 196.902 180.333 196.902 180.333C192.474 185.17 148.656 189.677 141.429 185.426ZM242.568 124.73C234.28 125.884 224.913 124.162 223.102 124.088C222.095 119.204 220.089 114.582 217.21 110.513C217.166 110.453 217.102 110.413 217.029 110.4C216.957 110.386 216.883 110.4 216.82 110.439C216.758 110.479 216.712 110.54 216.692 110.612C216.674 110.683 216.681 110.759 216.716 110.824C217.778 112.986 221.327 122.311 222.205 124.583C221.931 125.463 230.475 160.84 228.06 165.603C225.901 169.909 213.332 175.332 208.794 176.889C207.898 166.689 206.431 156.548 204.403 146.513C205.025 141.237 204.22 109.872 203.982 98.2745C203.975 98.1399 203.931 98.0097 203.853 97.8998C203.775 97.7892 203.668 97.7036 203.543 97.6516L195.329 94.189C195.292 89.8353 195.016 85.4866 194.505 81.1629C215.015 84.7171 238.909 96.4607 240.903 96.4791C243.794 96.4791 265.273 79.9904 269.719 79.3308C271.695 79.0194 280.185 86.4393 281.173 88.4912C272.5 100.62 257.26 116.559 250.198 122.073C247.923 123.596 245.296 124.511 242.568 124.73Z" fill="black"/>
<path d="M168.562 55.1108C168.539 54.9905 168.493 54.8759 168.426 54.7737C168.359 54.6711 168.272 54.5828 168.171 54.5139C168.069 54.4452 167.956 54.3969 167.836 54.3719C167.717 54.347 167.594 54.346 167.473 54.3689C167.353 54.3916 167.238 54.4379 167.136 54.5052C167.034 54.5725 166.946 54.6588 166.877 54.76C166.808 54.8613 166.759 54.9752 166.735 55.0951C166.711 55.215 166.709 55.3386 166.732 55.4589C167.098 57.291 167.171 57.7123 167.976 57.7123C168.129 57.7127 168.278 57.6753 168.412 57.6034C168.546 57.5311 168.661 57.4269 168.743 57.2993C168.827 57.172 168.877 57.0258 168.891 56.8739C168.903 56.722 168.879 56.5694 168.818 56.4299C168.763 56.1367 168.598 55.2757 168.562 55.1108ZM174.16 67.2391C175.349 67.5872 176.484 67.0193 176.447 66.7261C176.411 66.433 176.447 66.5796 174.837 65.975C173.758 65.5719 172.568 64.1429 172.148 64.3628C171.727 64.5826 172.367 65.7551 172.514 65.975C172.905 66.5696 173.485 67.0149 174.16 67.2391ZM207.623 49.8344C205.227 59.8925 203.47 68.43 203.177 70.1338C202.982 70.875 202.946 71.6491 203.068 72.4056C204.037 74.4758 216.57 78.5614 218.162 77.7552C219.753 76.9491 223.888 67.6239 228.7 58.0055C231.647 58.0997 234.597 57.8849 237.5 57.3642C240.557 56.8026 243.532 55.8609 246.356 54.5612C252.54 51.7031 259.309 39.4648 260.224 33.3091C260.91 26.6256 259.497 19.8946 256.18 14.054C240.83 -12.6028 195.804 1.74238 199.463 31.3487C200.508 38.1231 203.324 44.5007 207.623 49.8344ZM218.784 71.6544C218.784 71.9476 218.454 71.9109 216.954 71.6544C213.885 71.2684 210.914 70.318 208.19 68.8513C206.91 68.1552 206.562 68.0086 206.69 67.6971C206.818 67.3857 207.093 67.4956 209.069 68.0452C209.252 68.0452 214.923 69.8773 216.552 70.4453C218.656 71.3979 218.784 71.3979 218.784 71.6544ZM218.454 41.8465C220.407 41.9478 222.354 41.5444 224.108 40.674C225.736 41.4641 227.499 41.9428 229.304 42.0847C226.23 47.8191 219.991 59.5078 217.979 65.7368L210.221 63.5933C212.051 59.0864 216.094 48.5336 218.418 41.8465H218.454ZM217.814 40.3259C216.448 40.1194 215.187 39.4698 214.226 38.4772C213.264 37.4842 212.655 36.2031 212.49 34.8297C211.978 31.1655 214.32 27.0617 217.851 28.0327C220.064 28.6373 220.339 30.3961 219.955 32.6129C219.625 34.2251 218.436 38.274 217.777 40.2526L217.814 40.3259ZM222.791 35.9289C222.986 34.7301 223.436 33.5869 224.108 32.5762C224.428 32.0253 224.896 31.5752 225.459 31.2775C226.021 30.9793 226.656 30.8454 227.291 30.8907C228.645 31.2938 229.231 33.8587 228.115 35.4709C227.041 36.8963 225.707 38.1028 224.181 39.0251C223.655 38.7167 223.237 38.2547 222.982 37.701C222.728 37.1478 222.647 36.5292 222.754 35.9289H222.791ZM205.977 12.6433C214.173 2.76834 229.597 -1.1523 240.739 2.91491C246.792 4.99551 251.882 9.20826 255.064 14.7685C258.219 20.3262 259.568 26.7289 258.925 33.0892C258.083 38.787 251.606 50.6222 245.916 53.2421C240.714 55.6184 235.038 56.7713 229.322 56.6131C228.7 56.6131 228.041 56.6131 227.804 57.0528C226.724 59.2513 224.748 63.5017 222.809 67.4956C221.469 66.8481 220.081 66.3088 218.656 65.8834C220.778 59.8009 227.474 47.8558 230.658 42.0664C233.416 42.3029 236.189 41.8236 238.708 40.674C239.388 40.3153 239.952 39.7696 240.335 39.1008C240.716 38.4322 240.9 37.6684 240.864 36.8989C240.827 36.1298 240.571 35.387 240.129 34.7574C239.685 34.1282 239.072 33.6382 238.36 33.3457C235.524 31.9533 232.981 35.2877 231.499 38.0908C231.097 38.8236 230.639 39.6847 230.127 40.6557C228.647 40.5584 227.188 40.2563 225.791 39.758C227.182 38.7786 228.416 37.5928 229.45 36.2404C230.03 35.3643 230.322 34.33 230.29 33.2801C230.257 32.2298 229.9 31.2158 229.267 30.3777C228.77 29.7998 228.08 29.4231 227.325 29.3185C226.57 29.2139 225.803 29.3888 225.169 29.8098C223.887 30.5983 222.861 31.7401 222.211 33.0985C221.563 34.4569 221.319 35.9742 221.51 37.4679C221.708 38.311 222.162 39.0724 222.809 39.648C221.609 40.1457 220.321 40.3952 219.022 40.3809C219.753 38.219 220.943 34.3167 221.254 32.7228C221.449 31.8141 221.492 30.8794 221.382 29.9564C221.24 29.1642 220.872 28.4297 220.324 27.8415C219.776 27.2529 219.069 26.8362 218.29 26.6403C213.844 25.3762 210.569 30.3045 211.209 34.903C211.389 36.5508 212.096 38.0964 213.223 39.3109C214.35 40.5254 215.838 41.3439 217.466 41.645C215.125 48.2405 211.465 58.8849 209.636 63.4284L205.611 62.3841C208.19 49.413 208.501 49.7245 208.136 49.5596C203.978 44.2522 201.319 37.9256 200.433 31.2388C200.002 27.9231 200.273 24.5537 201.227 21.3501C202.182 18.1461 203.801 15.1795 205.977 12.6433ZM231.371 40.7656C232.652 38.4389 235.213 33.3457 237.702 34.5915C238.199 34.7924 238.633 35.1255 238.955 35.5549C239.278 35.9842 239.476 36.4935 239.531 37.0282C239.495 40.2526 234.482 40.8206 231.298 40.7656H231.371ZM301.408 48.8451C303.612 47.5466 306.216 47.1033 308.726 47.5993C311.483 47.6486 314.116 48.7521 316.086 50.6838C318.057 52.6155 319.211 55.2284 319.318 57.9871C317.661 57.0241 315.723 56.6617 313.831 56.9612C309.238 57.3642 303.237 59.8559 304.042 64.2895C304.701 67.9536 309.531 67.459 313.19 66.4697C316.849 65.4803 319.757 63.6849 320.508 60.149C324.953 63.3918 325.997 69.0712 326.18 74.6224C326.18 74.7 326.21 74.7746 326.267 74.8296C326.32 74.8845 326.396 74.9155 326.473 74.9155C326.549 74.9155 326.626 74.8845 326.679 74.8296C326.736 74.7746 326.766 74.7 326.766 74.6224C326.892 68.4117 325.778 62.3292 320.708 58.7933C320.761 57.2027 320.489 55.6181 319.913 54.1351C319.338 52.6525 318.463 51.3024 317.352 50.1665C316.238 49.0309 314.905 48.1336 313.436 47.5283C311.966 46.9234 310.388 46.6233 308.799 46.6466C306.259 46.2752 303.67 46.8068 301.481 48.1489C300.804 48.4787 301.115 48.9733 301.408 48.8451ZM318.093 61.9811C316.026 64.6925 310.171 66.1032 307.464 65.6452C306.457 65.4803 305.634 65.059 305.414 64.0147C304.756 60.3505 311.068 58.3536 314.837 58.2253C316.371 58.1074 317.901 58.5004 319.191 59.3429C319.051 60.3009 318.676 61.2083 318.093 61.9811ZM293.028 27.4281C294.986 25.0098 293.669 20.796 288.198 20.7777C286.076 20.7777 285.051 22.9395 285.198 25.0098C285.527 29.938 291.071 29.7915 293.028 27.4281ZM286.478 24.9181C286.478 23.709 287.045 22.1334 288.308 22.1517C291.253 22.1517 292.607 23.5258 292.607 25.0464C292.534 28.509 286.24 30.3045 286.478 24.9181ZM285.728 232.621C269.646 226.19 262.181 257.317 249.045 284.065C248.961 285.189 248.999 286.321 249.155 287.436C249.155 290.24 249.466 308.798 251.094 310.905C251.533 311.748 253.381 310.905 254.241 310.374C261.544 305.847 268.426 300.672 274.806 294.911C274.86 294.849 274.9 294.777 274.926 294.697C274.95 294.618 274.96 294.536 274.952 294.453C278.355 289.598 291.107 264.316 294.199 251.638C296.358 242.66 294.217 235.973 285.728 232.621ZM291.473 255.888C282.863 254.783 274.539 252.061 266.938 247.864C271.22 239.747 276.507 230.495 285.234 233.976C294.949 237.842 294.748 245.848 291.473 255.833V255.888ZM261.029 303.522C260.466 303.05 259.853 302.644 259.199 302.313C256.726 301.055 253.87 300.779 251.204 301.543C251.021 299.363 249.978 285.183 249.978 285.055C263.682 290.075 259.455 287.894 273.031 294.655C271.604 296.011 266.243 299.766 261.029 303.485V303.522ZM270.469 250.502C272.253 251.477 274.086 252.364 275.958 253.158C271.764 259.754 268.059 266.65 264.871 273.787C261.797 280.218 261.907 280.181 258.778 287.198C256.949 286.612 255.119 286.062 253.29 285.513C255.266 281.574 269.317 252.774 270.469 250.465V250.502ZM259.492 287.381C265.438 276.7 271.494 263.418 276.69 253.396C278.52 254.166 280.349 254.789 282.179 255.338C281.209 257.171 278.373 262.044 277.623 263.455C276.873 264.865 269.353 279.705 268.823 280.841C267.981 282.673 265.676 287.785 264.962 289.415C263.096 288.591 261.303 287.968 259.419 287.345L259.492 287.381ZM265.621 289.653C266.737 287.62 271.329 279.082 271.896 277.983C272.756 276.279 282.343 256.658 282.874 255.522C284.557 255.998 286.332 256.401 287.466 256.621C284.118 265.781 274.476 283.424 271 292.127C267.835 290.643 267.121 290.276 265.548 289.617L265.621 289.653ZM266.737 248.395L270.012 250.227C263.412 261.482 257.664 273.215 252.814 285.33L250.07 284.487C260.699 261.806 261.193 258.838 266.664 248.358L266.737 248.395ZM274.275 293.72L271.512 292.401C274.495 286.539 283.825 271.497 288.088 256.749C289.113 256.932 290.119 257.097 291.089 257.225C286.387 269.788 280.742 281.976 274.202 293.684L274.275 293.72ZM216.954 305.611C217.683 305.006 218.204 304.188 218.444 303.27C218.683 302.353 218.63 301.383 218.29 300.499C218.134 299.223 217.55 298.036 216.632 297.137C215.715 296.238 214.518 295.678 213.24 295.551C211.962 295.423 210.679 295.734 209.602 296.434C208.524 297.133 207.716 298.18 207.312 299.4C204.97 297.879 202.427 296.267 199.994 294.728C201.824 292.291 207.202 293.372 207.751 295.369C207.764 295.447 207.806 295.518 207.869 295.563C207.933 295.609 208.012 295.629 208.09 295.617C208.167 295.604 208.236 295.562 208.284 295.499C208.329 295.435 208.349 295.356 208.337 295.278C208.062 292.09 201.439 290.221 198.768 293.977C196.408 292.53 193.481 290.771 191.029 289.433C193.133 287.601 197.835 288.627 198.347 290.533C198.372 290.598 198.417 290.652 198.478 290.687C198.538 290.721 198.609 290.732 198.677 290.719C198.745 290.705 198.806 290.669 198.85 290.614C198.893 290.56 198.916 290.491 198.914 290.423C198.677 287.455 192.548 285.458 189.767 288.719C188.602 288.065 187.376 287.525 186.107 287.107C185.876 287.01 185.621 286.983 185.374 287.029C185.127 287.075 184.898 287.191 184.717 287.363C180.088 293.134 164.482 308.121 157.273 309.861C157.092 309.889 156.921 309.963 156.778 310.078C156.634 310.193 156.525 310.342 156.458 310.513C156.39 310.684 156.369 310.87 156.397 311.051C156.426 311.232 156.5 311.403 156.615 311.547C158.197 313.156 160.01 314.521 161.993 315.595C160.164 317.428 158.737 319.076 157.676 320.267C157.127 320.854 156.834 332.066 157.31 334.541C157.38 334.781 157.537 334.99 157.749 335.127C160.054 336.703 189.748 349.564 192.785 347.842C194.816 346.686 219.058 321.421 219.442 320.652C220.028 319.443 219.827 311.382 219.79 308.157C219.644 307.186 217.832 306.142 216.954 305.611ZM158.408 329.814V325.727C166 329.391 183.381 336.866 189.968 338.954C191.651 339.504 191.797 339.431 192.676 338.954C197.707 335.73 215.472 315.687 218.729 312.627V316.493C208.849 326.406 192.072 343.774 191.761 342.785C189.95 342.675 159.981 330.547 158.408 329.814ZM216.497 299.437C217.154 300.546 217.508 301.811 217.521 303.101C217.515 303.511 217.415 303.914 217.227 304.281C217.04 304.646 216.771 304.963 216.442 305.208C214.905 304.182 211.996 302.276 208.556 300.041C210.441 296.322 214.631 296.267 216.424 299.437H216.497ZM157.95 311.162C165.744 308.853 180.545 294.563 185.522 288.371C186.719 288.705 187.874 289.179 188.962 289.781C187.132 293.189 189.09 296.927 189.785 296.395C190.169 296.102 189.474 295.992 189.364 294.197C189.317 292.885 189.614 291.585 190.224 290.423C192.749 291.742 195.713 293.464 198.219 294.911C196.682 298.337 198.53 301.727 199.171 301.232C199.811 300.737 198.878 300.847 198.768 299.052C198.724 297.875 198.948 296.702 199.427 295.626C202.006 297.146 204.641 298.722 207.056 300.206C206.684 301.119 206.536 302.108 206.625 303.09C206.714 304.072 207.038 305.018 207.568 305.849C207.593 305.879 207.622 305.907 207.657 305.927C207.69 305.945 207.728 305.959 207.767 305.963C207.806 305.968 207.846 305.966 207.884 305.956C207.922 305.945 207.957 305.928 207.989 305.904C208.02 305.879 208.047 305.85 208.065 305.815C208.085 305.782 208.099 305.744 208.104 305.704C208.108 305.666 208.107 305.626 208.096 305.588C208.085 305.55 208.068 305.513 208.044 305.482C207.715 304.754 207.553 303.962 207.568 303.163C207.584 302.365 207.777 301.58 208.136 300.866C212.398 303.467 215.838 305.647 216.899 306.362C216.698 306.545 197.615 323.547 191.12 328.605C186.858 327.486 164.482 316.365 157.95 311.162ZM158.645 321.366C166.933 325.031 185.76 333.531 190.096 334.358C190.846 334.504 191.139 334.557 192.566 333.422C198.658 328.532 218.473 307.772 218.656 307.992C218.665 308.047 218.665 308.102 218.656 308.157V311.821C214.576 315.101 191.889 338.954 191.523 337.819C189.693 337.819 159.963 325.674 158.444 324.994C158.408 324.225 158.572 322.173 158.645 321.366ZM191.962 346.613C190.132 347.658 162.268 336.316 158.536 334.008C158.395 332.839 158.328 331.666 158.334 330.49C166.348 334.448 189.657 344.304 191.797 344.214C194.926 344.048 217.046 319.113 218.619 317.373C218.637 318.309 218.544 319.243 218.345 320.157C218.034 320.762 193.17 345.936 191.962 346.613ZM40.3805 243.338C40.5086 245.299 40.6001 247.003 40.6001 248.596C40.6001 248.839 40.6965 249.073 40.8679 249.244C41.0395 249.416 41.272 249.512 41.5149 249.512C41.7574 249.512 41.9902 249.416 42.1615 249.244C42.3332 249.073 42.4297 248.839 42.4297 248.596C42.4297 246.893 42.3382 245.207 42.2101 243.21C42.1931 242.967 42.0804 242.741 41.8967 242.581C41.7131 242.421 41.4739 242.341 41.2311 242.358C40.9886 242.375 40.7627 242.488 40.6031 242.671C40.4434 242.856 40.3636 243.095 40.3805 243.338ZM319.155 206.605C319.035 206.613 318.918 206.644 318.809 206.695C318.702 206.749 318.606 206.822 318.529 206.914C318.449 207.004 318.389 207.109 318.353 207.222C318.316 207.337 318.303 207.457 318.313 207.576C318.423 209.262 318.533 211.075 318.533 212.834C318.533 213.077 318.629 213.311 318.802 213.481C318.972 213.654 319.204 213.75 319.447 213.75C319.69 213.75 319.923 213.654 320.093 213.481C320.266 213.311 320.362 213.077 320.362 212.834C320.362 211.002 320.252 209.17 320.123 207.448C320.116 207.329 320.086 207.211 320.033 207.105C319.98 206.996 319.906 206.9 319.817 206.822C319.727 206.743 319.62 206.683 319.507 206.647C319.394 206.61 319.274 206.595 319.155 206.605ZM35.6419 238.776C35.8844 238.776 36.1173 238.68 36.2886 238.508C36.4602 238.337 36.5567 238.103 36.5567 237.86C36.5567 237.618 36.4602 237.384 36.2886 237.213C36.1173 237.041 35.8844 236.944 35.6419 236.944C33.4281 236.944 31.5802 237.109 29.7507 237.073C29.5062 237.073 29.2716 237.169 29.0973 237.34C28.9227 237.511 28.8222 237.745 28.8176 237.989C28.8176 238.232 28.914 238.465 29.0854 238.636C29.257 238.808 29.4895 238.905 29.7324 238.905C31.6168 238.941 33.6843 238.868 35.6419 238.776ZM313.483 201.182C311.287 201.182 309.44 201.311 307.592 201.329C307.349 201.329 307.116 201.425 306.945 201.598C306.773 201.769 306.677 202.002 306.677 202.245C306.677 202.488 306.773 202.721 306.945 202.892C307.116 203.065 307.349 203.161 307.592 203.161C309.568 203.161 311.617 203.161 313.593 203.014C313.835 202.999 314.062 202.889 314.224 202.708C314.384 202.526 314.466 202.286 314.453 202.043C314.437 201.801 314.327 201.573 314.146 201.411C313.963 201.25 313.725 201.167 313.483 201.182ZM39.8865 227.454C39.9963 229.14 40.1061 230.954 40.1061 232.712C40.1107 232.953 40.2085 233.184 40.3792 233.355C40.5495 233.526 40.7797 233.624 41.0209 233.628C41.2634 233.628 41.4962 233.532 41.6676 233.36C41.8392 233.189 41.9357 232.955 41.9357 232.712C41.9357 230.88 41.8259 229.048 41.7161 227.326C41.6992 227.083 41.5864 226.857 41.4028 226.697C41.2191 226.537 40.98 226.457 40.7371 226.474C40.4946 226.491 40.2688 226.604 40.1091 226.787C39.9494 226.972 39.8696 227.211 39.8865 227.454ZM319.866 196.95C319.866 195.118 319.757 193.286 319.63 191.564C319.614 191.321 319.501 191.095 319.318 190.935C319.135 190.775 318.895 190.695 318.652 190.712C318.409 190.729 318.183 190.842 318.024 191.025C317.864 191.21 317.784 191.449 317.801 191.692C317.91 193.378 318.02 195.191 318.02 196.95C318.02 197.193 318.117 197.427 318.29 197.597C318.459 197.77 318.692 197.866 318.935 197.866C319.178 197.866 319.414 197.77 319.587 197.599C319.763 197.428 319.863 197.194 319.866 196.95ZM53.3889 238.538C53.5089 238.534 53.627 238.505 53.7361 238.454C53.8453 238.404 53.9437 238.332 54.0252 238.244C54.1067 238.155 54.1702 238.053 54.2115 237.938C54.2531 237.825 54.272 237.706 54.2671 237.586C54.2484 237.346 54.1403 237.122 53.9637 236.958C53.7874 236.796 53.5558 236.706 53.3157 236.706C51.1019 236.798 49.254 236.871 47.4061 236.834C47.1633 236.834 46.9308 236.931 46.7591 237.103C46.5878 237.274 46.4913 237.508 46.4913 237.751C46.4913 237.993 46.5878 238.227 46.7591 238.398C46.9308 238.57 47.1633 238.667 47.4061 238.667C49.3638 238.703 51.4129 238.63 53.3889 238.538ZM331.23 200.944C329.4 201.036 327.368 201.091 325.339 201.091C325.219 201.086 325.099 201.106 324.983 201.149C324.87 201.192 324.77 201.257 324.68 201.339C324.593 201.423 324.524 201.524 324.477 201.636C324.43 201.747 324.404 201.868 324.404 201.988C324.404 202.233 324.5 202.468 324.673 202.643C324.843 202.817 325.076 202.918 325.319 202.923C327.404 202.923 329.088 202.923 331.303 202.776C331.423 202.771 331.539 202.743 331.649 202.692C331.759 202.642 331.859 202.57 331.938 202.482C332.022 202.393 332.085 202.291 332.125 202.176C332.168 202.063 332.185 201.944 332.181 201.823C332.158 201.585 332.048 201.364 331.872 201.202C331.699 201.039 331.469 200.947 331.23 200.944ZM11.3449 184.254C11.5828 184.437 63.1771 176.779 65.3909 175.423C65.5137 175.333 65.6115 175.214 65.6753 175.077C65.7392 174.939 65.7675 174.787 65.7568 174.635C65.7568 172.272 62.6648 150.086 61.1829 144.553C60.9999 143.875 60.817 143.197 60.3962 142.959C57.5969 141.273 8.27126 150.58 5.32564 152.486C5.24587 152.533 5.17681 152.597 5.12328 152.672C5.06963 152.748 5.03274 152.834 5.01457 152.925C4.39252 155.142 9.75319 183.155 11.3449 184.254ZM6.13065 153.365C9.64345 151.771 54.4134 143.563 59.5362 144.205C60.7804 147.411 64.1102 170.898 64.3298 174.342C61.7866 175.093 12.0402 183.649 11.8572 183.686C11.6743 183.723 11.656 183.942 11.2718 182.788C9.66175 177.952 6.03917 157.506 6.13065 153.365Z" fill="black"/>
<path d="M69.416 177.054C69.5154 176.869 69.56 176.658 69.5441 176.449C69.5441 173.536 65.3726 141.2 63.8906 138.617C63.7745 138.426 63.6102 138.27 63.414 138.164C63.218 138.058 62.9975 138.005 62.7746 138.012C56.6455 137.261 4.94152 147.374 1.53849 149.738C1.0628 150.067 1.13598 150.892 1.19087 151.771C1.48361 156.59 6.67962 188.284 8.5092 188.101C8.71045 188.101 8.63727 187.955 8.16158 188.926C5.30743 194.807 -0.108131 213.64 0.00164373 217.433C0.00164373 219.027 0.367561 221.097 1.941 220.987C13.2295 219.595 68.5744 210.801 84.4917 207.521C85.1138 207.393 85.5163 206.825 85.498 205.891C85.3101 204.333 84.839 202.825 84.1075 201.439C81.8754 197.243 72.6178 180.626 69.416 177.054ZM8.61898 187.533C7.1919 185.701 1.941 154.135 2.34351 150.635C6.36859 148.547 57.3773 138.672 62.7197 139.478C64.1834 143.508 67.9706 172.62 68.2085 176.119C61.7317 178.355 16.8887 185.61 8.61898 187.533ZM9.42399 188.083C10.9608 187.698 63.3052 178.923 68.0987 177.658C70.715 180.095 82.5341 201.146 83.3025 202.941C72.8007 204.773 10.5034 215.198 1.33724 216.59C1.46531 211.039 7.15531 191.637 9.42399 188.083Z" fill="black"/>
<path d="M16.3043 207.082C17.896 206.843 51.6701 202.776 63.8734 199.46C63.9486 199.44 64.0131 199.391 64.0527 199.326C64.092 199.259 64.1033 199.178 64.084 199.103C64.0643 199.028 64.0161 198.962 63.9489 198.924C63.882 198.884 63.8022 198.872 63.727 198.892C61.3303 199.387 32.0936 203.289 16.2677 206.514C16.2239 206.506 16.179 206.508 16.1363 206.52C16.0936 206.532 16.0541 206.553 16.021 206.584C15.9878 206.613 15.9618 206.649 15.9449 206.691C15.9281 206.732 15.9208 206.776 15.9237 206.82C15.9266 206.865 15.9395 206.909 15.9615 206.947C15.9835 206.985 16.014 207.019 16.0506 207.043C16.0873 207.069 16.1293 207.086 16.1732 207.092C16.2171 207.099 16.2619 207.095 16.3043 207.082ZM40.9853 79.6056C40.3017 81.1512 39.7272 82.7431 39.2655 84.369C39.2382 84.6299 39.3101 84.8917 39.4668 85.1019C41.3147 87.8866 60.2508 109.267 65.1907 112.272C65.8676 112.693 66.6727 112.986 67.1666 112.381C70.755 107.91 75.4384 104.445 80.7604 102.323C85.0922 100.789 89.6339 99.9297 94.2262 99.7768C97.8853 99.447 98.5257 99.0806 99.9345 96.6806C101.596 93.5221 103.801 90.6817 106.448 88.2897C109.823 85.335 113.568 82.8344 117.59 80.8514C117.771 80.7488 117.913 80.5883 117.992 80.3958C118.072 80.2032 118.085 79.9897 118.029 79.7888C117.411 78.2129 116.593 76.7229 115.596 75.3552C116.254 75.1354 116.986 74.9338 116.986 74.2743C116.986 72.4422 101.032 49.3214 96.6046 44.9611C96.1472 44.503 95.4886 43.8985 94.8848 43.9351C85.7369 44.4481 76.8268 53.0955 71.6674 60.6436C65.7579 60.4238 61.934 59.8925 55.2012 62.7322C50.4479 64.7525 46.1627 67.7341 42.6137 71.4895C42.0648 72.0575 38.3324 76.0148 38.2775 76.3262C38.2227 76.6377 38.3324 76.6377 40.9853 79.6056ZM114.169 79.0927C106.539 80.3934 101.673 86.7507 98.0866 93.6577C96.4948 96.7355 96.6412 96.8821 94.958 96.8455C92.0147 96.6786 89.0621 96.7892 86.1394 97.1752C83.9955 97.496 81.8878 98.024 79.8456 98.7508C75.1985 100.4 69.8744 105.676 67.0386 109.597C66.9784 109.677 66.9015 109.744 66.8137 109.793C66.7259 109.842 66.6287 109.872 66.5283 109.881C66.4282 109.889 66.3274 109.877 66.2322 109.844C66.1374 109.81 66.0506 109.758 65.9774 109.688C60.0313 103.551 49.5112 92.7783 44.2237 86.5858C43.9676 86.311 44.4067 85.908 44.6628 86.2011C48.0841 89.8653 56.921 98.6409 66.3982 108.186C69.6 104.1 74.5399 99.1539 79.4248 97.4317C82.0887 96.4804 84.8607 95.8648 87.6763 95.5997C90.3132 95.3991 92.9614 95.3991 95.5984 95.5997C96.6778 94.3539 102.02 80.2102 114.132 78.6346C114.167 78.6606 114.197 78.6943 114.217 78.7332C114.238 78.7722 114.249 78.8152 114.251 78.8591C114.253 78.9031 114.245 78.9471 114.227 78.9874C114.21 79.028 114.184 79.0637 114.15 79.0927H114.169ZM94.8665 45.4191C98.5257 47.984 113.418 70.0605 115.358 73.9262C111.993 74.9938 108.744 76.3995 105.661 78.1217C102.742 79.5873 100.186 81.6862 98.1791 84.2661C96.1722 86.846 94.7657 89.8416 94.0615 93.0348C87.4933 82.3354 78.3271 70.5552 72.2346 61.8895C72.6005 61.6513 82.8828 46.1336 94.8665 45.4191ZM55.6037 63.7398C62.2817 61.0467 65.9774 61.6696 71.5028 61.9078C76.9915 71.288 86.853 84.5156 93.348 93.1813C87.3533 91.761 81.0452 92.6297 75.6559 95.618C72.4175 97.4501 68.4657 101.847 66.0323 104.577C62.5195 101.755 42.2477 80.1369 38.9911 76.4728C44.0041 70.7933 48.633 66.5246 55.6037 63.6666V63.7398ZM22.1223 110.33C21.6703 110.012 21.1357 109.832 20.5835 109.813C20.0313 109.793 19.4854 109.934 19.0121 110.22C18.6674 110.374 18.3561 110.594 18.0966 110.869C17.8367 111.143 17.6336 111.466 17.4986 111.819C17.3635 112.172 17.2991 112.548 17.3093 112.926C17.3194 113.304 17.4037 113.676 17.5575 114.021C17.7112 114.366 17.9316 114.678 18.2054 114.938C18.4795 115.198 18.8018 115.401 19.1544 115.537C19.507 115.672 19.8826 115.737 20.2602 115.726C20.6374 115.716 21.0093 115.632 21.3539 115.478C21.9048 115.357 22.4061 115.072 22.791 114.659C23.1762 114.247 23.427 113.727 23.5102 113.169C23.5937 112.611 23.5055 112.04 23.2577 111.533C23.0099 111.026 22.614 110.606 22.1223 110.33ZM20.9148 113.994C19.6341 114.397 18.8657 113.994 18.5547 113.371C17.9692 112.07 18.701 110.073 20.6038 110.659C21.9394 111.154 23.0188 113.407 20.9148 114.085V113.994ZM115.157 26.4937C115.687 27.5747 118.157 27.1716 119.237 26.8235C119.804 26.6403 120.17 26.4388 120.225 25.8891C120.389 24.5151 120.572 12.6066 119.95 11.4524C119.886 11.3313 119.787 11.2321 119.667 11.1669C119.546 11.1017 119.41 11.0735 119.273 11.086C117.321 11.0805 115.379 11.3646 113.51 11.9288C112.76 12.3868 114.498 25.2846 115.157 26.4937ZM113.894 12.3685C115.584 12.1263 117.294 12.0466 118.999 12.1303C119.108 13.486 118.816 25.2296 118.797 25.4128C118.024 25.6903 117.199 25.7905 116.382 25.7059C116.254 25.2846 116.035 24.1487 115.76 22.7197C114.954 19.3052 114.331 15.8497 113.894 12.3685ZM20.3476 94.8668C20.5233 94.9571 20.7176 95.0037 20.9148 95.0037C21.1121 95.0037 21.3063 94.9571 21.482 94.8668C22.1889 94.4301 22.7494 93.7922 23.092 93.0348C23.1386 92.9135 23.1529 92.7823 23.1336 92.654C23.1143 92.5254 23.0624 92.4042 22.9822 92.3019C22.104 91.2576 12.517 80.1369 11.3461 80.8331C9.90838 81.7652 8.54441 82.8064 7.26614 83.9477C7.21461 83.994 7.17329 84.0503 7.14495 84.1132C7.11658 84.1765 7.10181 84.2448 7.10147 84.3141C7.06488 85.2667 17.713 93.8042 20.3476 94.8668ZM11.5657 81.3095C12.9012 82.2805 17.402 87.85 21.5735 92.7783C21.3942 93.0611 21.172 93.3146 20.9148 93.5294C16.529 90.7187 12.3416 87.6088 8.38218 84.2225C9.37475 83.1788 10.4385 82.2055 11.5657 81.3095ZM40.3084 40.8939C40.7109 33.7854 44.8457 30.4877 49.1636 29.6449C47.9377 34.1518 48.139 40.0145 52.5849 40.7656C54.7072 41.1137 55.7501 40.0145 57.2869 38.732C63.8551 33.2358 58.5493 27.7395 51.1395 28.1243C53.9022 20.5395 60.2874 14.3654 68.7584 14.1639C68.8359 14.1639 68.9104 14.133 68.9653 14.0781C69.0202 14.023 69.0511 13.9485 69.0511 13.8708C69.0511 13.793 69.0202 13.7184 68.9653 13.6634C68.9104 13.6085 68.8359 13.5776 68.7584 13.5776C59.6105 13.3944 52.4202 19.9899 49.5844 28.2342C44.6994 29.077 39.851 32.7411 39.7229 40.7839C39.7156 40.8226 39.7159 40.8619 39.7243 40.9002C39.7322 40.9385 39.7479 40.9748 39.7698 41.0074C39.7921 41.0398 39.8201 41.0674 39.853 41.0887C39.8856 41.11 39.9225 41.125 39.9608 41.132C39.9994 41.1394 40.0386 41.1387 40.0769 41.1307C40.1151 41.1227 40.1514 41.107 40.184 41.0851C40.2162 41.0627 40.2439 41.0348 40.2651 41.0018C40.2864 40.9691 40.3011 40.9325 40.3084 40.8939ZM50.7187 29.4251C53.4448 29.2418 57.5065 30.0846 58.6225 32.5579C59.2629 33.9686 58.6225 35.7091 56.3538 37.6144C55.7377 38.2323 55.0352 38.757 54.2681 39.1717C51.5237 40.3442 48.4866 36.9549 50.7187 29.4251ZM55.9513 288.536C54.1836 288.061 52.3394 287.946 50.5264 288.197C48.7135 288.447 46.9691 289.058 45.3956 289.994C43.8222 290.928 42.4513 292.169 41.3642 293.644C40.2768 295.117 39.4947 296.794 39.0643 298.575C38.2516 302.276 38.9399 306.148 40.978 309.339C43.0162 312.531 46.2369 314.782 49.932 315.595C53.6271 316.409 57.4938 315.721 60.6809 313.679C63.8687 311.638 66.1161 308.414 66.9288 304.713C67.2761 302.928 67.2671 301.093 66.9022 299.311C66.5376 297.53 65.8244 295.84 64.8042 294.336C63.7836 292.832 62.4759 291.545 60.9567 290.55C59.4372 289.554 57.736 288.87 55.9513 288.536ZM61.6047 303.467C60.8706 306.398 59.1132 308.971 56.6502 310.717C54.1873 312.466 51.1811 313.273 48.1756 312.994C45.4166 311.915 43.1259 309.895 41.7072 307.291C40.2884 304.687 39.8317 301.666 40.4182 298.759C41.1028 295.756 42.8439 293.099 45.3231 291.276C47.8024 289.453 50.8541 288.585 53.9205 288.829C56.7068 289.982 58.9977 292.081 60.3899 294.759C61.782 297.437 62.1865 300.52 61.5315 303.467H61.6047Z" fill="black"/>
<path d="M80.3209 293.757C78.7282 293.207 77.021 293.075 75.3627 293.372C74.6751 291.794 73.8295 290.29 72.8379 288.884C74.0271 287.803 77.2838 284.798 76.4971 283.388C73.6971 280.033 70.373 277.157 66.6536 274.868C65.1008 273.997 63.391 273.442 61.6226 273.238C60.4516 273.403 57.6703 277.965 57.0483 278.991C56.6458 278.991 55.219 278.533 55.1093 278.478C55.1093 277.158 54.7251 272.395 53.5358 271.845C52.2059 271.355 50.825 271.016 49.4193 270.838C48.1203 270.636 36.4292 272.78 35.5693 274.355C35.0022 275.418 36.3195 279.43 36.7037 280.548C35.717 281.091 34.7693 281.704 33.8678 282.38C32.0382 283.681 32.5322 283.626 32.2029 283.479C31.8047 283.288 31.3783 283.165 30.9405 283.113C29.4788 282.255 27.7653 281.931 26.0921 282.197C24.4089 282.746 20.4387 291.797 19.7983 294.123C19.5888 294.71 19.5322 295.34 19.6337 295.956C20.0728 297.165 23.0001 298.136 24.2259 298.52C23.8873 300.878 23.8873 303.272 24.2259 305.629C22.6159 306.069 19.2674 307.058 19.4504 308.707C19.6333 310.356 23.9146 321.238 25.6893 322.099C26.6616 322.644 27.7367 322.979 28.8458 323.083C29.9548 323.186 31.0732 323.058 32.1297 322.704C32.7245 322.406 33.2993 322.07 33.8495 321.696C34.5814 322.246 35.3498 322.741 36.1365 323.217C35.5693 324.628 34.3069 327.779 34.7094 329.208C34.9107 329.961 35.5144 330.197 36.356 330.51C38.6796 331.353 51.194 334.358 53.0967 334.028C53.8103 333.918 54.1945 333.165 54.414 332.452C54.8205 330.823 55.0597 329.161 55.1272 327.486C56.067 327.392 57.0014 327.252 57.9268 327.066C58.492 328.059 59.2148 328.958 60.0674 329.721C61.0005 330.38 61.7872 330.051 62.8484 329.374C63.3607 330.034 64.1291 330.95 64.9524 331.04C67.0198 331.28 75.564 323.217 76.4422 321.568C77.174 320.194 74.5028 317.739 73.3136 316.658C74.6 314.719 75.6099 312.611 76.3141 310.392C77.6337 310.591 78.9693 310.666 80.3026 310.612C80.9064 310.612 81.6016 310.392 81.8578 309.824C82.9738 307.278 82.6445 297.623 81.8578 295.168C81.748 294.453 80.9247 293.977 80.3209 293.757ZM80.76 295.443C81.3821 297.824 81.583 306.82 80.6682 309.147C79.0864 309.302 77.4904 309.229 75.9296 308.927C75.7632 308.898 75.5919 308.933 75.4499 309.024C75.3075 309.116 75.2047 309.258 75.1615 309.421C74.433 311.898 73.3016 314.238 71.813 316.347C71.7072 316.487 71.6593 316.661 71.68 316.837C71.7002 317.011 71.7877 317.17 71.9231 317.281C73.2068 318.299 74.2973 319.54 75.1432 320.945C74.2284 322.447 67.0747 329.008 65.0988 329.557C64.8061 329.557 64.001 328.458 63.7998 328.165C63.1238 327.146 62.5131 326.09 61.9702 324.994C61.891 324.834 61.755 324.711 61.5893 324.648C61.4233 324.581 61.2394 324.581 61.0734 324.648C55.7676 326.643 53.7554 325.47 53.7554 326.789C53.7577 328.765 53.4364 330.727 52.8037 332.599C48.5041 332.129 44.2705 331.183 40.1799 329.777C40.3775 327.819 40.9224 325.913 41.7899 324.151C42.3388 322.924 40.1433 323.272 36.045 319.095C35.913 318.972 35.74 318.904 35.5603 318.904C35.3804 318.904 35.2074 318.972 35.0753 319.095C33.2458 320.597 30.8673 322.063 30.3916 321.824C29.4585 321.366 25.159 311.602 24.9029 309.623C26.2042 308.714 27.6815 308.09 29.239 307.791C29.405 307.743 29.5483 307.638 29.6428 307.493C29.7366 307.348 29.7755 307.174 29.7513 307.003C29.3028 304.409 29.3028 301.756 29.7513 299.162C29.7792 299.001 29.7456 298.838 29.6575 298.702C29.569 298.566 29.4326 298.469 29.2756 298.429C27.8961 298.067 26.5685 297.531 25.3237 296.835C24.9212 296.542 24.9578 296.56 24.9943 296.249C26.1786 291.972 28.0777 287.926 30.6112 284.285C31.5991 284.01 34.2703 285.971 35.1851 286.667C35.2806 286.76 35.4087 286.812 35.5417 286.812C35.6751 286.812 35.8032 286.76 35.8987 286.667C36.7393 285.794 37.6444 284.986 38.6064 284.249C41.3874 282.142 42.1375 282.417 41.8997 281.684C41.0584 279.846 40.586 277.859 40.5092 275.839C40.7926 275.603 41.1146 275.418 41.4606 275.29C43.1687 274.614 44.9235 274.062 46.7115 273.641C48.8787 273.036 51.1061 272.673 53.3529 272.56C53.7371 272.725 54.0847 274.392 54.1762 274.905C54.8531 278.569 54.3957 279.32 54.9263 279.375C60.1406 279.888 61.2018 281.336 61.5677 280.694C62.5823 278.917 63.7649 277.242 65.0988 275.693C65.483 275.308 65.4647 275.125 66.6173 275.784C70.0609 278.038 73.1449 280.798 75.7652 283.974C76.0397 284.45 73.6612 286.978 71.9231 288.462C71.3194 288.994 72.1793 289.232 73.7527 292.236C75.3261 295.241 74.9599 296.084 75.8015 295.901C77.4242 295.511 79.0938 295.357 80.76 295.443ZM334.686 142.354C330.851 140.786 326.832 139.72 322.724 139.185C319.723 138.708 316.191 138.232 313.208 137.847C316.081 133.78 324.587 123.484 326.014 120.974C326.416 120.296 325.651 119.343 325.082 118.775C321.899 115.368 315.751 114.085 311.031 113.352C308.323 112.913 297.017 111.52 295.096 112.436C292.79 113.536 275.739 139.185 275.226 143.087C275.226 143.747 275.446 144.003 276.086 144.241C278.776 145.231 290.906 146.77 293.614 147.411C289.954 153.823 273.689 175.497 272.098 178.556C271.713 179.326 271.951 179.784 272.409 179.93C274.055 180.585 275.749 181.112 277.477 181.506C278.135 181.707 279.581 180.81 281.685 179.527C291.125 173.848 331.632 147.063 334.743 143.6C334.829 143.519 334.896 143.42 334.942 143.31C334.985 143.201 335.005 143.083 334.999 142.965C334.995 142.847 334.962 142.731 334.909 142.625C334.856 142.52 334.779 142.428 334.686 142.354ZM295.37 164.339C279.819 174.617 274.568 177.622 274.385 177.75C276.891 173.921 292.461 152.559 295.132 147.447C295.178 147.348 295.202 147.241 295.202 147.131C295.202 147.023 295.176 146.915 295.129 146.817C295.082 146.718 295.013 146.632 294.928 146.563C294.844 146.495 294.745 146.446 294.638 146.421C292.809 145.762 279.489 144.333 276.342 143.215C276.745 139.808 293.357 114.049 295.37 113.023C297.382 111.997 316.904 114.323 320.565 116.943C318.642 120.699 308.031 133.853 306.311 136.913C305.963 137.536 305.853 138.14 306.53 138.305C307.207 138.47 324.404 140.486 328.156 141.713C323.582 145.542 300.493 160.895 295.37 164.266V164.339ZM178.002 52.326C178.002 52.4909 178.112 52.6924 178.386 53.755C178.458 53.9855 178.617 54.1791 178.829 54.2953C179.039 54.4112 179.288 54.4409 179.521 54.3779C179.754 54.31 179.951 54.1521 180.067 53.9389C180.184 53.7261 180.211 53.4752 180.143 53.242C179.96 52.5275 179.795 51.923 179.686 51.6298C179.579 51.4286 179.402 51.2744 179.187 51.1975C178.974 51.1202 178.739 51.1255 178.528 51.2124C178.318 51.2994 178.147 51.4616 178.051 51.6675C177.953 51.8733 177.935 52.1082 178.002 52.326Z" fill="black"/>
</svg>
