<svg width="277" height="369" viewBox="0 0 277 369" fill="none" xmlns="http://www.w3.org/2000/svg">
<path d="M36.473 207.814C36.7345 208.015 93.459 199.607 95.8929 198.118C96.0279 198.02 96.1354 197.889 96.2056 197.738C96.2758 197.587 96.3069 197.42 96.2952 197.254C96.2952 194.659 92.8958 170.299 91.2664 164.225C91.0653 163.48 90.8641 162.736 90.4015 162.475C87.3239 160.624 33.0937 170.842 29.8551 172.934C29.7674 172.986 29.6915 173.057 29.6327 173.139C29.5737 173.223 29.5331 173.317 29.5132 173.417C28.8292 175.851 34.7229 206.607 36.473 207.814ZM30.7402 173.9C34.6023 172.15 83.8239 163.138 89.4561 163.842C90.8239 167.363 94.4848 193.15 94.7262 196.932C91.9302 197.756 37.2374 207.15 37.0362 207.19C36.8351 207.231 36.815 207.472 36.3925 206.205C34.6224 200.894 30.6396 178.446 30.7402 173.9Z" fill="white"/>
<path d="M100.318 199.909C100.428 199.706 100.477 199.475 100.459 199.245C100.459 196.047 95.8728 160.544 94.2435 157.707C94.1159 157.498 93.9352 157.327 93.7194 157.21C93.504 157.093 93.2615 157.036 93.0165 157.044C86.2779 156.219 29.4329 167.322 25.6915 169.917C25.1685 170.279 25.2489 171.185 25.3093 172.15C25.6311 177.44 31.3438 212.239 33.3553 212.038C33.5766 212.038 33.4961 211.877 32.9731 212.943C29.8352 219.4 23.8811 240.078 24.0018 244.242C24.0018 245.992 24.4041 248.265 26.134 248.145C38.545 246.616 99.3929 236.961 116.893 233.36C117.577 233.219 118.019 232.596 117.999 231.57C117.793 229.86 117.275 228.204 116.471 226.682C114.017 222.076 103.838 203.831 100.318 199.909ZM33.476 211.415C31.907 209.403 26.134 174.745 26.5765 170.903C31.0018 168.61 87.0825 157.768 92.9561 158.653C94.5653 163.078 98.7291 195.041 98.9906 198.883C91.8699 201.337 42.568 209.302 33.476 211.415ZM34.361 212.018C36.0507 211.596 93.5998 201.96 98.87 200.573C101.746 203.248 114.741 226.36 115.586 228.331C104.04 230.343 35.5478 241.788 25.4702 243.317C25.611 237.222 31.8668 215.92 34.361 212.018Z" fill="white"/>
<path d="M94.2245 224.509C80.8078 228.15 43.6754 232.616 41.9254 232.877C41.8788 232.892 41.8295 232.896 41.7813 232.889C41.733 232.882 41.6869 232.864 41.6465 232.835C41.6063 232.808 41.5727 232.771 41.5486 232.73C41.5243 232.688 41.5102 232.639 41.507 232.59C41.5038 232.542 41.5119 232.493 41.5303 232.448C41.5489 232.403 41.5774 232.363 41.614 232.331C41.6503 232.297 41.6938 232.274 41.7407 232.26C41.7876 232.247 41.8371 232.245 41.8852 232.254C59.2847 228.713 91.4285 224.429 94.0636 223.886C94.1462 223.864 94.234 223.877 94.3075 223.921C94.3814 223.963 94.4344 224.035 94.456 224.117C94.4772 224.199 94.4648 224.288 94.4216 224.362C94.3781 224.434 94.3071 224.488 94.2245 224.509Z" fill="white"/>
<path d="M63.9086 312.334C61.9763 311.816 59.9602 311.691 57.9784 311.964C55.9966 312.238 54.0897 312.904 52.3697 313.926C50.6497 314.946 49.1512 316.301 47.9628 317.911C46.7741 319.519 45.9192 321.349 45.4486 323.294C44.5602 327.334 45.3126 331.561 47.5406 335.044C49.7686 338.529 53.2893 340.986 57.3286 341.874C61.3679 342.763 65.5948 342.011 69.0788 339.783C72.5635 337.554 75.0202 334.034 75.9086 329.994C76.2882 328.046 76.2784 326.043 75.8795 324.098C75.481 322.153 74.7013 320.308 73.5861 318.666C72.4704 317.024 71.041 315.619 69.3802 314.533C67.7192 313.446 65.8595 312.699 63.9086 312.334ZM70.0886 328.634C69.2861 331.834 67.365 334.643 64.6726 336.549C61.9803 338.458 58.6941 339.339 55.4086 339.034C52.3926 337.856 49.8886 335.651 48.3377 332.809C46.7868 329.966 46.2875 326.668 46.9286 323.494C47.677 320.216 49.5802 317.316 52.2904 315.326C55.0006 313.336 58.3366 312.388 61.6886 312.654C64.7344 313.913 67.2388 316.204 68.7606 319.128C70.2824 322.051 70.7246 325.418 70.0086 328.634H70.0886Z" fill="white"/>
<path d="M90.5482 318.034C88.8072 317.434 86.941 317.289 85.1282 317.614C84.3766 315.891 83.4522 314.249 82.3682 312.714C83.6682 311.534 87.2282 308.254 86.3682 306.714C83.3075 303.053 79.6737 299.913 75.6079 297.414C73.9104 296.463 72.0413 295.858 70.1082 295.634C68.8282 295.814 65.7879 300.794 65.1079 301.914C64.6679 301.914 63.1082 301.414 62.9882 301.354C62.9882 299.914 62.5682 294.714 61.2682 294.114C59.8144 293.58 58.305 293.209 56.7682 293.014C55.3482 292.794 42.5682 295.134 41.6282 296.854C41.0082 298.014 42.4482 302.394 42.8682 303.614C41.7897 304.208 40.7537 304.876 39.7682 305.614C37.7682 307.034 38.3082 306.974 37.9482 306.814C37.513 306.606 37.0468 306.471 36.5682 306.414C34.9704 305.478 33.0973 305.125 31.2682 305.414C29.4282 306.014 25.0882 315.894 24.3882 318.434C24.1591 319.074 24.0973 319.763 24.2082 320.434C24.6882 321.754 27.8882 322.814 29.2282 323.234C28.8581 325.808 28.8581 328.421 29.2282 330.994C27.4682 331.474 23.8079 332.554 24.0079 334.354C24.2079 336.154 28.8879 348.034 30.8279 348.974C31.8908 349.569 33.0661 349.934 34.2784 350.048C35.4908 350.161 36.7133 350.021 37.8682 349.634C38.5184 349.309 39.1468 348.943 39.7482 348.534C40.5482 349.134 41.3882 349.674 42.2482 350.194C41.6282 351.734 40.2482 355.174 40.6882 356.734C40.9082 357.556 41.5682 357.814 42.4882 358.156C45.0282 359.076 58.7082 362.356 60.7882 361.996C61.5682 361.876 61.9882 361.054 62.2282 360.276C62.6726 358.498 62.9341 356.684 63.0079 354.854C64.0352 354.753 65.0566 354.6 66.0682 354.396C66.6861 355.48 67.4762 356.462 68.4082 357.294C69.4282 358.014 70.2882 357.654 71.4482 356.916C72.0082 357.636 72.8482 358.636 73.7482 358.734C76.0082 358.996 85.3482 350.194 86.3082 348.394C87.1082 346.894 84.1882 344.214 82.8882 343.034C84.2944 340.918 85.3984 338.616 86.1682 336.194C87.6108 336.411 89.0708 336.493 90.5282 336.434C91.1882 336.434 91.9482 336.194 92.2282 335.574C93.4482 332.794 93.0882 322.254 92.2282 319.574C92.1082 318.794 91.2082 318.274 90.5482 318.034ZM91.0282 319.874C91.7082 322.474 91.9279 332.294 90.9279 334.834C89.1988 335.005 87.4541 334.925 85.7479 334.594C85.5661 334.563 85.3788 334.601 85.2235 334.701C85.0679 334.801 84.9555 334.956 84.9082 335.134C84.1119 337.838 82.8752 340.393 81.2479 342.694C81.1322 342.848 81.0799 343.038 81.1024 343.229C81.1246 343.42 81.2202 343.593 81.3682 343.714C82.7715 344.826 83.9635 346.181 84.8882 347.714C83.8882 349.354 76.0682 356.516 73.9082 357.116C73.5882 357.116 72.7082 355.916 72.4882 355.596C71.7493 354.484 71.0817 353.331 70.4882 352.134C70.4017 351.96 70.253 351.825 70.0719 351.756C69.8904 351.684 69.6893 351.684 69.5079 351.756C63.7079 353.934 61.5082 352.654 61.5082 354.094C61.5108 356.251 61.1595 358.393 60.4679 360.436C55.7679 359.924 51.1399 358.891 46.6682 357.356C46.8842 355.218 47.4799 353.138 48.4282 351.214C49.0282 349.874 46.6282 350.254 42.1482 345.694C42.0039 345.561 41.8148 345.486 41.6184 345.486C41.4217 345.486 41.2326 345.561 41.0882 345.694C39.0882 347.334 36.4882 348.934 35.9682 348.674C34.9482 348.174 30.2482 337.514 29.9682 335.354C31.3908 334.363 33.0057 333.681 34.7082 333.354C34.8897 333.303 35.0464 333.188 35.1497 333.029C35.2522 332.871 35.2948 332.681 35.2682 332.494C34.7781 329.663 34.7781 326.766 35.2682 323.934C35.2988 323.76 35.2621 323.581 35.1657 323.433C35.069 323.285 34.9199 323.178 34.7482 323.134C33.2402 322.74 31.789 322.154 30.4282 321.394C29.9882 321.074 30.0282 321.094 30.0682 320.754C31.3628 316.086 33.4388 311.669 36.2082 307.694C37.2882 307.394 40.2082 309.534 41.2082 310.294C41.3126 310.396 41.4526 310.453 41.5981 310.453C41.7439 310.453 41.8839 310.396 41.9882 310.294C42.9071 309.341 43.8966 308.46 44.9482 307.654C47.9882 305.354 48.8082 305.654 48.5482 304.854C47.6286 302.848 47.1122 300.68 47.0282 298.474C47.3381 298.216 47.6901 298.014 48.0682 297.874C49.9355 297.136 51.8537 296.534 53.8082 296.074C56.1773 295.414 58.6122 295.018 61.0682 294.894C61.4882 295.074 61.8682 296.894 61.9682 297.454C62.7082 301.454 62.2082 302.274 62.7882 302.334C68.4882 302.894 69.6482 304.474 70.0482 303.774C71.1573 301.834 72.4501 300.006 73.9082 298.314C74.3282 297.894 74.3082 297.694 75.5682 298.414C79.3326 300.874 82.7039 303.888 85.5682 307.354C85.8682 307.874 83.2682 310.634 81.3682 312.254C80.7082 312.834 81.6482 313.094 83.3682 316.374C85.0882 319.654 84.6879 320.574 85.6079 320.374C87.3817 319.949 89.2068 319.781 91.0282 319.874Z" fill="white"/>
<path d="M265.628 32.9938C261.435 31.2814 257.043 30.1181 252.552 29.5338C249.272 29.0138 245.41 28.4938 242.15 28.0738C245.29 23.6338 254.588 12.3938 256.148 9.65377C256.588 8.91377 255.752 7.87377 255.13 7.25377C251.65 3.53377 244.93 2.13376 239.77 1.33376C236.81 0.85376 224.45 -0.666232 222.35 0.333768C219.83 1.53377 201.19 29.5338 200.63 33.7938C200.63 34.5138 200.87 34.7938 201.57 35.0538C204.51 36.1338 217.77 37.8138 220.73 38.5138C216.73 45.5138 198.95 69.1738 197.21 72.5138C196.79 73.3538 197.05 73.8538 197.55 74.0138C199.35 74.7287 201.202 75.3039 203.09 75.7338C203.81 75.9538 205.39 74.9738 207.69 73.5738C218.01 67.3738 262.29 38.1338 265.69 34.3538C265.785 34.2654 265.857 34.1574 265.908 34.0374C265.955 33.9178 265.977 33.789 265.97 33.6599C265.966 33.5312 265.93 33.4047 265.872 33.2898C265.814 33.1749 265.73 33.0741 265.628 32.9938ZM222.65 56.9938C205.65 68.2138 199.91 71.4938 199.71 71.6338C202.45 67.4538 219.47 44.1338 222.39 38.5538C222.44 38.4454 222.467 38.3287 222.467 38.2087C222.467 38.0905 222.438 37.9723 222.387 37.8654C222.335 37.757 222.26 37.6639 222.167 37.5887C222.075 37.5138 221.967 37.4603 221.85 37.4338C219.85 36.7138 205.29 35.1538 201.85 33.9338C202.29 30.2138 220.45 2.09376 222.65 0.97376C224.85 -0.14624 246.19 2.39377 250.192 5.25377C248.09 9.35377 236.49 23.7138 234.61 27.0538C234.23 27.7338 234.11 28.3938 234.85 28.5738C235.59 28.7538 254.388 30.9538 258.49 32.2938C253.49 36.4738 228.25 53.2338 222.65 56.9138V56.9938Z" fill="white"/>
<path d="M27.0429 8.24662C10.2113 16.9089 30.5029 45.3602 43.1194 75.3547C43.985 76.2286 44.9444 77.0077 45.9755 77.6785C48.2849 79.686 63.7983 92.7212 66.702 92.8867C67.7112 93.1281 68.3421 91 68.5211 89.91C70.0292 80.6431 70.7007 71.2583 70.5298 61.8699C70.5176 61.7797 70.4869 61.6958 70.44 61.6174C70.3921 61.5406 70.3309 61.4739 70.2574 61.4211C68.698 55.1364 57.0134 26.5086 48.7857 14.8778C42.9379 6.66731 35.8933 3.64409 27.0429 8.24662ZM50.3326 20.1709C43.2474 26.4824 35.0345 31.4007 26.1258 34.6652C22.5094 25.3205 18.6789 14.332 27.8056 9.62514C37.9578 4.3787 44.4096 10.2787 50.2873 20.1316L50.3326 20.1709ZM67.7438 79.4028C66.9518 79.529 66.1776 79.744 65.4355 80.0462C62.6254 81.1853 60.3498 83.3436 59.0676 86.0912C57.1402 84.6808 44.7093 75.3854 44.6037 75.2935C58.5672 67.5832 53.74 69.5085 69.0457 63.1503C69.1392 65.2986 68.389 72.4111 67.7136 79.3765L67.7438 79.4028ZM30.8318 33.6414C32.9148 32.8687 34.9601 31.9918 36.9568 31.0158C39.3826 39.1998 42.4074 47.1953 46.0014 54.9373C49.0951 62.0787 49.1436 61.9619 52.681 69.5684C50.8858 70.6579 49.1209 71.7737 47.356 72.8895C45.5278 68.4382 31.8768 36.2194 30.8016 33.6152L30.8318 33.6414ZM53.3436 69.1109C48.8081 56.5556 42.2079 42.0466 37.6778 30.5826C39.6239 29.6242 41.4492 28.5609 43.2142 27.4452C44.0282 29.5573 46.0094 35.3871 46.6337 37.0163C47.258 38.6455 54.0915 55.4774 54.6468 56.7286C55.5527 58.7351 58.1107 64.2977 58.9423 66.0542C56.9247 67.0034 55.1257 68.0365 53.261 69.145L53.3436 69.1109ZM59.6109 65.6814C58.7359 63.3042 54.9954 53.4011 54.4965 52.1459C53.7094 50.2162 44.419 28.254 43.8637 27.0028C45.4633 25.9553 47.0681 24.7798 48.0628 24.0014C53.2087 33.3242 60.8295 53.9146 65.5062 63.015C62.0136 64.5635 61.2001 64.8898 59.5283 65.7155L59.6109 65.6814ZM26.4192 35.2117L30.2773 33.822C34.8167 47.3278 40.3608 60.4732 46.8639 73.1507L44.2014 74.8113C33.1382 49.7975 31.0472 47.2643 26.3365 35.2459L26.4192 35.2117ZM69.1681 61.4547L66.1001 62.7892C63.4087 56.1301 57.7081 37.6596 48.6145 23.5801C49.5003 22.866 50.3578 22.1539 51.1589 21.4458C58.1364 34.3218 64.1299 47.7074 69.0855 61.4889L69.1681 61.4547Z" fill="white"/>
<path d="M206.15 198.402C203.53 209.382 201.61 218.702 201.29 220.562C201.077 221.371 201.037 222.216 201.17 223.042C202.23 225.302 215.93 229.762 217.67 228.882C219.41 228.002 223.93 217.822 229.19 207.322C232.412 207.425 235.637 207.19 238.81 206.622C242.152 206.009 245.404 204.981 248.49 203.562C255.25 200.442 262.65 187.082 263.65 180.362C264.4 173.066 262.855 165.718 259.23 159.342C242.45 130.242 193.23 145.902 197.23 178.222C198.372 185.617 201.45 192.58 206.15 198.402ZM218.35 222.222C218.35 222.542 217.99 222.502 216.35 222.222C212.995 221.801 209.747 220.763 206.77 219.162C205.37 218.402 204.99 218.242 205.13 217.902C205.27 217.562 205.57 217.682 207.73 218.282C207.93 218.282 214.13 220.282 215.91 220.902C218.21 221.942 218.35 221.942 218.35 222.222ZM217.99 189.682C220.125 189.793 222.254 189.352 224.17 188.402C225.95 189.265 227.877 189.787 229.85 189.942C226.49 196.202 219.67 208.962 217.47 215.762L208.99 213.422C210.99 208.502 215.41 196.982 217.95 189.682H217.99ZM217.29 188.022C215.797 187.797 214.419 187.088 213.368 186.004C212.317 184.92 211.65 183.521 211.47 182.022C210.91 178.022 213.47 173.542 217.33 174.602C219.75 175.262 220.05 177.182 219.63 179.602C219.27 181.362 217.97 185.782 217.25 187.942L217.29 188.022ZM222.73 183.222C222.944 181.913 223.435 180.665 224.17 179.562C224.52 178.961 225.032 178.469 225.647 178.144C226.262 177.819 226.955 177.673 227.65 177.722C229.13 178.162 229.77 180.962 228.55 182.722C227.377 184.278 225.919 185.595 224.25 186.602C223.675 186.265 223.219 185.761 222.94 185.157C222.662 184.553 222.574 183.877 222.69 183.222H222.73ZM204.35 157.802C213.31 147.022 230.17 142.742 242.35 147.182C248.967 149.453 254.532 154.052 258.01 160.122C261.459 166.189 262.934 173.179 262.23 180.122C261.31 186.342 254.23 199.262 248.01 202.122C242.324 204.716 236.119 205.975 229.87 205.802C229.19 205.802 228.47 205.802 228.21 206.282C227.03 208.682 224.87 213.322 222.75 217.682C221.285 216.975 219.768 216.386 218.21 215.922C220.53 209.282 227.85 196.242 231.33 189.922C234.345 190.18 237.377 189.657 240.13 188.402C240.874 188.01 241.49 187.415 241.908 186.685C242.325 185.955 242.527 185.121 242.487 184.281C242.447 183.441 242.167 182.63 241.684 181.943C241.199 181.256 240.528 180.721 239.75 180.402C236.65 178.882 233.87 182.522 232.25 185.582C231.81 186.382 231.31 187.322 230.75 188.382C229.132 188.276 227.537 187.946 226.01 187.402C227.53 186.333 228.88 185.038 230.01 183.562C230.644 182.606 230.964 181.477 230.928 180.33C230.892 179.184 230.502 178.077 229.81 177.162C229.267 176.531 228.512 176.12 227.687 176.006C226.862 175.892 226.024 176.082 225.33 176.542C223.928 177.403 222.807 178.649 222.097 180.132C221.388 181.615 221.122 183.272 221.33 184.902C221.547 185.822 222.044 186.654 222.75 187.282C221.439 187.825 220.03 188.098 218.61 188.082C219.41 185.722 220.71 181.462 221.05 179.722C221.264 178.73 221.31 177.71 221.19 176.702C221.035 175.837 220.634 175.036 220.034 174.393C219.435 173.751 218.662 173.296 217.81 173.082C212.95 171.702 209.37 177.082 210.07 182.102C210.267 183.901 211.04 185.588 212.272 186.914C213.504 188.24 215.13 189.133 216.91 189.462C214.35 196.662 210.35 208.282 208.35 213.242L203.95 212.102C206.77 197.942 207.11 198.282 206.71 198.102C202.165 192.308 199.259 185.402 198.29 178.102C197.819 174.482 198.115 170.804 199.159 167.307C200.202 163.809 201.972 160.571 204.35 157.802ZM232.11 188.502C233.51 185.962 236.31 180.402 239.03 181.762C239.574 181.981 240.048 182.345 240.4 182.814C240.754 183.282 240.97 183.838 241.03 184.422C240.99 187.942 235.51 188.562 232.03 188.502H232.11Z" fill="white"/>
<path d="M184.97 306.942C184.223 308.629 183.595 310.367 183.09 312.142C183.06 312.426 183.139 312.712 183.31 312.942C185.33 315.982 206.03 339.322 211.43 342.602C212.17 343.062 213.05 343.382 213.59 342.722C217.513 337.841 222.632 334.058 228.45 331.742C233.185 330.066 238.15 329.129 243.17 328.962C247.17 328.602 247.87 328.202 249.41 325.582C251.227 322.134 253.637 319.033 256.53 316.422C260.219 313.196 264.314 310.466 268.71 308.302C268.908 308.19 269.063 308.014 269.15 307.804C269.237 307.594 269.251 307.361 269.19 307.142C268.514 305.421 267.62 303.795 266.53 302.302C267.25 302.062 268.05 301.842 268.05 301.122C268.05 299.122 250.61 273.882 245.77 269.122C245.27 268.622 244.55 267.962 243.89 268.002C233.89 268.562 224.15 278.002 218.51 286.242C212.05 286.002 207.87 285.422 200.51 288.522C195.314 290.727 190.63 293.982 186.75 298.082C186.15 298.702 182.07 303.022 182.01 303.362C181.95 303.702 182.07 303.702 184.97 306.942ZM264.97 306.382C256.63 307.802 251.31 314.742 247.39 322.282C245.65 325.642 245.81 325.802 243.97 325.762C240.753 325.58 237.525 325.7 234.33 326.122C231.986 326.472 229.682 327.048 227.45 327.842C222.37 329.642 216.55 335.402 213.45 339.682C213.384 339.77 213.3 339.843 213.204 339.896C213.108 339.95 213.002 339.982 212.892 339.992C212.783 340.001 212.673 339.987 212.569 339.951C212.465 339.915 212.37 339.857 212.29 339.782C205.79 333.082 194.29 321.322 188.51 314.562C188.23 314.262 188.71 313.822 188.99 314.142C192.73 318.142 202.39 327.722 212.75 338.142C216.25 333.682 221.65 328.282 226.99 326.402C229.902 325.363 232.932 324.691 236.01 324.402C238.893 324.183 241.787 324.183 244.67 324.402C245.85 323.042 251.69 307.602 264.93 305.882C264.969 305.91 265.001 305.947 265.023 305.989C265.046 306.032 265.058 306.079 265.06 306.127C265.062 306.175 265.053 306.223 265.034 306.267C265.015 306.311 264.986 306.35 264.95 306.382H264.97ZM243.87 269.622C247.87 272.422 264.15 296.522 266.27 300.742C262.591 301.907 259.04 303.442 255.67 305.322C252.479 306.922 249.685 309.213 247.491 312.029C245.297 314.846 243.76 318.116 242.99 321.602C235.81 309.922 225.79 297.062 219.13 287.602C219.53 287.342 230.77 270.402 243.87 269.622ZM200.95 289.622C208.25 286.682 212.29 287.362 218.33 287.622C224.33 297.862 235.11 312.302 242.21 321.762C235.657 320.211 228.761 321.16 222.87 324.422C219.33 326.422 215.01 331.222 212.35 334.202C208.51 331.122 186.35 307.522 182.79 303.522C188.27 297.322 193.33 292.662 200.95 289.542V289.622Z" fill="white"/>
<path d="M105.646 46.824C106.086 39.064 110.606 35.464 115.326 34.544C113.986 39.464 114.206 45.864 119.066 46.684C121.386 47.064 122.526 45.864 124.206 44.464C131.386 38.464 125.586 32.464 117.486 32.884C120.506 24.6041 127.486 17.8641 136.746 17.6441C136.83 17.6441 136.912 17.6104 136.972 17.5504C137.032 17.4902 137.066 17.4089 137.066 17.3241C137.066 17.2392 137.032 17.1577 136.972 17.0977C136.912 17.0377 136.83 17.0041 136.746 17.0041C126.746 16.8041 118.886 24.0041 115.786 33.004C110.446 33.924 105.146 37.924 105.006 46.704C104.998 46.7462 104.998 46.7891 105.007 46.8309C105.016 46.8728 105.033 46.9124 105.057 46.948C105.081 46.9833 105.112 47.0135 105.148 47.0368C105.184 47.06 105.224 47.0764 105.266 47.084C105.308 47.092 105.351 47.0913 105.393 47.0826C105.434 47.0738 105.474 47.0568 105.51 47.0328C105.545 47.0084 105.575 46.9778 105.598 46.9418C105.622 46.9062 105.638 46.8662 105.646 46.824ZM117.026 34.304C120.006 34.104 124.446 35.024 125.666 37.724C126.366 39.264 125.666 41.164 123.186 43.244C122.512 43.9186 121.744 44.4913 120.906 44.944C117.906 46.224 114.586 42.524 117.026 34.304Z" fill="white"/>
<path d="M166.88 197.152C166.88 195.412 166.78 193.552 166.64 191.412C166.621 191.147 166.709 190.886 166.883 190.684C167.058 190.484 167.305 190.361 167.57 190.342C167.835 190.324 168.097 190.41 168.297 190.586C168.498 190.761 168.621 191.007 168.64 191.272C168.78 193.452 168.88 195.292 168.88 197.152C168.88 197.417 168.775 197.672 168.587 197.859C168.4 198.047 168.145 198.152 167.88 198.152C167.615 198.152 167.36 198.047 167.173 197.859C166.985 197.672 166.88 197.417 166.88 197.152Z" fill="white"/>
<path d="M162.167 186.139C161.98 186.327 161.725 186.432 161.46 186.432C159.32 186.532 157.06 186.612 155 186.572C154.735 186.572 154.48 186.467 154.293 186.279C154.105 186.092 154 185.837 154 185.572C154.005 185.306 154.115 185.051 154.306 184.864C154.496 184.677 154.753 184.572 155.02 184.572C157.02 184.612 159.04 184.432 161.46 184.432C161.725 184.432 161.98 184.537 162.167 184.726C162.355 184.912 162.46 185.167 162.46 185.432C162.46 185.697 162.355 185.952 162.167 186.139Z" fill="white"/>
<path d="M166.34 179.812C166.34 177.892 166.22 175.912 166.1 174.072C166.081 173.807 166.169 173.546 166.343 173.344C166.518 173.144 166.765 173.021 167.03 173.002C167.295 172.984 167.557 173.071 167.757 173.246C167.958 173.421 168.081 173.667 168.1 173.932C168.22 175.812 168.34 177.812 168.34 179.812C168.34 180.077 168.235 180.332 168.047 180.519C167.86 180.707 167.605 180.812 167.34 180.812C167.076 180.807 166.825 180.701 166.639 180.514C166.452 180.327 166.345 180.076 166.34 179.812Z" fill="white"/>
<path d="M181.24 186.081C181.12 186.136 180.991 186.167 180.86 186.172C178.7 186.272 176.46 186.352 174.32 186.312C174.055 186.312 173.8 186.207 173.613 186.019C173.425 185.832 173.32 185.577 173.32 185.312C173.32 185.047 173.425 184.792 173.613 184.606C173.8 184.417 174.055 184.312 174.32 184.312C176.34 184.352 178.36 184.272 180.78 184.172C181.043 184.172 181.296 184.271 181.488 184.447C181.681 184.626 181.8 184.871 181.82 185.132C181.825 185.264 181.805 185.394 181.759 185.517C181.714 185.642 181.645 185.754 181.556 185.851C181.467 185.947 181.359 186.026 181.24 186.081Z" fill="white"/>
<path d="M186.88 278.152C186.88 276.412 186.78 274.552 186.64 272.412C186.621 272.147 186.709 271.886 186.883 271.684C187.058 271.484 187.305 271.361 187.57 271.342C187.835 271.324 188.097 271.41 188.297 271.586C188.498 271.761 188.621 272.007 188.64 272.272C188.78 274.452 188.88 276.292 188.88 278.152C188.88 278.417 188.775 278.672 188.587 278.859C188.4 279.047 188.145 279.152 187.88 279.152C187.615 279.152 187.36 279.047 187.173 278.859C186.985 278.672 186.88 278.417 186.88 278.152Z" fill="white"/>
<path d="M182.167 267.139C181.98 267.327 181.725 267.432 181.46 267.432C179.32 267.532 177.06 267.612 175 267.572C174.735 267.572 174.48 267.467 174.293 267.279C174.105 267.092 174 266.837 174 266.572C174.005 266.306 174.115 266.051 174.306 265.864C174.496 265.677 174.753 265.572 175.02 265.572C177.02 265.612 179.04 265.432 181.46 265.432C181.725 265.432 181.98 265.537 182.167 265.726C182.355 265.912 182.46 266.167 182.46 266.432C182.46 266.697 182.355 266.952 182.167 267.139Z" fill="white"/>
<path d="M186.34 260.812C186.34 258.892 186.22 256.912 186.1 255.072C186.081 254.807 186.169 254.546 186.343 254.344C186.518 254.144 186.765 254.021 187.03 254.002C187.295 253.984 187.557 254.071 187.757 254.246C187.958 254.421 188.081 254.667 188.1 254.932C188.22 256.812 188.34 258.812 188.34 260.812C188.34 261.077 188.235 261.332 188.047 261.519C187.86 261.707 187.605 261.812 187.34 261.812C187.076 261.807 186.825 261.701 186.639 261.514C186.452 261.327 186.345 261.076 186.34 260.812Z" fill="white"/>
<path d="M201.24 267.081C201.12 267.136 200.991 267.167 200.86 267.172C198.7 267.272 196.46 267.352 194.32 267.312C194.055 267.312 193.8 267.207 193.613 267.019C193.425 266.832 193.32 266.577 193.32 266.312C193.32 266.047 193.425 265.792 193.613 265.606C193.8 265.417 194.055 265.312 194.32 265.312C196.34 265.352 198.36 265.272 200.78 265.172C201.043 265.172 201.296 265.271 201.488 265.447C201.681 265.626 201.8 265.871 201.82 266.132C201.825 266.264 201.805 266.394 201.759 266.517C201.714 266.642 201.645 266.754 201.556 266.851C201.467 266.947 201.359 267.026 201.24 267.081Z" fill="white"/>
<path d="M230.983 134.188C231.335 135.455 234.069 135.522 235.299 135.366C235.946 135.284 236.379 135.142 236.549 134.564C237.004 133.123 239.604 120.384 239.169 119.02C239.124 118.877 239.038 118.751 238.922 118.656C238.806 118.562 238.664 118.504 238.515 118.49C236.42 118.09 234.276 118.002 232.154 118.229C231.256 118.569 230.519 132.757 230.983 134.188ZM232.478 118.779C234.343 118.86 236.195 119.12 238.01 119.555C237.854 121.032 235.169 133.571 235.112 133.764C234.226 133.906 233.319 133.846 232.459 133.59C232.406 133.112 232.4 131.849 232.393 130.261C232.216 126.435 232.245 122.602 232.478 118.779Z" fill="white"/>
<path d="M220.785 136.334C220.942 136.483 221.131 136.591 221.338 136.652C221.545 136.713 221.763 136.724 221.975 136.683C222.851 136.443 223.635 135.947 224.227 135.259C224.313 135.146 224.368 135.013 224.387 134.873C224.406 134.732 224.389 134.589 224.337 134.457C223.736 133.093 217.094 118.496 215.652 118.865C213.857 119.399 212.107 120.071 210.415 120.873C210.347 120.906 210.286 120.952 210.237 121.01C210.188 121.067 210.152 121.134 210.13 121.207C209.799 122.193 218.348 134.411 220.785 136.334ZM215.736 119.432C216.839 120.859 219.85 128.078 222.712 134.523C222.438 134.764 222.127 134.962 221.791 135.108C218.053 130.815 214.615 126.269 211.502 121.504C212.863 120.716 214.278 120.024 215.736 119.432Z" fill="white"/>
<path d="M138.08 261.061C140.073 263.022 141.278 265.646 141.465 268.436C142.193 271.361 141.774 274.453 140.294 277.079C138.815 279.706 136.387 281.663 133.508 282.555C134.054 280.534 133.888 278.385 133.037 276.471C131.313 271.736 126.988 266.104 122.54 268.206C118.863 269.937 120.751 274.898 122.83 278.482C124.908 282.066 127.624 284.629 131.565 284.423C129.403 290.032 123.71 292.74 117.908 294.501C117.826 294.523 117.756 294.576 117.714 294.651C117.671 294.723 117.66 294.813 117.682 294.893C117.703 294.974 117.758 295.046 117.831 295.087C117.905 295.131 117.992 295.141 118.074 295.12C124.658 293.498 130.757 290.603 133.051 284.251C134.743 283.858 136.337 283.122 137.738 282.095C139.139 281.069 140.315 279.764 141.198 278.27C142.08 276.773 142.65 275.112 142.872 273.389C143.094 271.667 142.964 269.915 142.49 268.244C142.163 265.457 140.87 262.874 138.835 260.942C138.296 260.32 137.862 260.788 138.08 261.061ZM128.95 282.391C125.506 280.974 122.362 275.191 122.079 272.202C121.968 271.093 122.179 270.105 123.218 269.578C126.896 267.847 130.787 273.948 131.989 277.891C132.547 279.477 132.565 281.204 132.042 282.805C130.993 282.928 129.929 282.787 128.95 282.391ZM158.293 246.162C161.397 247.546 165.467 244.964 163.939 239.183C163.339 236.942 160.769 236.471 158.628 237.21C153.524 238.95 155.247 244.763 158.293 246.162ZM159.086 238.537C160.361 238.195 162.183 238.349 162.521 239.687C163.355 242.797 162.289 244.615 160.685 245.045C157.013 245.946 153.34 239.807 159.086 238.537Z" fill="white"/>
<path d="M36.293 119.162C39.3969 120.546 43.4674 117.964 41.939 112.183C41.3385 109.942 38.7691 109.471 36.6275 110.21C31.524 111.95 33.247 117.763 36.293 119.162ZM37.0865 111.537C38.3615 111.195 40.1833 111.349 40.5212 112.687C41.3546 115.797 40.2887 117.615 38.6853 118.045C35.0134 118.946 31.3395 112.807 37.0865 111.537Z" fill="white"/>
<path d="M168.211 89.3086C169.008 88.6486 169.578 87.7552 169.839 86.7537C170.101 85.7519 170.043 84.6937 169.671 83.7286C169.501 82.3351 168.863 81.0402 167.859 80.0588C166.856 79.077 165.548 78.4653 164.151 78.3272C162.754 78.1872 161.351 78.5268 160.174 79.2904C158.996 80.0537 158.113 81.197 157.671 82.5286C155.111 80.8686 152.331 79.1086 149.671 77.4286C151.671 74.7686 157.551 75.9486 158.151 78.1286C158.165 78.2137 158.211 78.2904 158.279 78.3402C158.349 78.3904 158.436 78.4119 158.521 78.3988C158.606 78.3853 158.681 78.3388 158.733 78.2704C158.783 78.2002 158.804 78.1137 158.791 78.0286C158.491 74.5486 151.251 72.5086 148.331 76.6086C145.751 75.0286 142.551 73.1086 139.871 71.6486C142.171 69.6486 147.311 70.7686 147.871 72.8486C147.898 72.9202 147.948 72.9788 148.014 73.0169C148.079 73.0537 148.158 73.0668 148.231 73.0519C148.306 73.037 148.373 72.997 148.421 72.937C148.468 72.8788 148.493 72.8035 148.491 72.7286C148.231 69.4886 141.531 67.3086 138.491 70.8686C137.218 70.1551 135.878 69.5653 134.491 69.1086C134.238 69.0035 133.959 68.9737 133.689 69.0235C133.419 69.0737 133.169 69.2002 132.971 69.3886C127.911 75.6886 110.851 92.0486 102.971 93.9486C102.773 93.9788 102.586 94.0603 102.429 94.1853C102.273 94.3104 102.153 94.4737 102.079 94.6603C102.006 94.8472 101.983 95.0504 102.013 95.2471C102.044 95.4453 102.126 95.6319 102.251 95.7886C103.981 97.5453 105.963 99.0351 108.131 100.209C106.131 102.209 104.571 104.009 103.411 105.309C102.811 105.949 102.491 118.189 103.011 120.89C103.088 121.152 103.259 121.381 103.491 121.53C106.011 123.25 138.471 137.29 141.791 135.41C144.011 134.149 170.511 106.569 170.931 105.729C171.571 104.409 171.351 95.6086 171.311 92.0886C171.151 91.0286 169.171 89.8886 168.211 89.3086ZM104.211 115.73V111.269C112.511 115.269 131.511 123.429 138.711 125.709C140.551 126.309 140.711 126.229 141.671 125.709C147.171 122.189 166.591 100.309 170.151 96.9686V101.189C159.351 112.01 141.011 130.97 140.671 129.89C138.691 129.77 105.931 116.53 104.211 115.73ZM167.711 82.5686C168.429 83.7802 168.816 85.1602 168.831 86.5686C168.824 87.0169 168.714 87.457 168.509 87.857C168.304 88.2555 168.011 88.6021 167.651 88.8686C165.971 87.7486 162.791 85.6686 159.031 83.2286C161.091 79.1686 165.671 79.1086 167.631 82.5686H167.711ZM103.711 95.3686C112.231 92.8486 128.411 77.2486 133.851 70.4886C135.159 70.8537 136.423 71.3704 137.611 72.0286C135.611 75.7486 137.751 79.8286 138.511 79.2486C138.931 78.9286 138.171 78.8086 138.051 76.8486C137.999 75.417 138.324 73.997 138.991 72.7286C141.751 74.1686 144.991 76.0486 147.731 77.6286C146.051 81.3686 148.071 85.0686 148.771 84.5286C149.471 83.9886 148.451 84.1086 148.331 82.1486C148.283 80.8635 148.528 79.5835 149.051 78.4086C151.871 80.0686 154.751 81.7886 157.391 83.4086C156.984 84.4053 156.823 85.4853 156.919 86.557C157.018 87.6286 157.371 88.6621 157.951 89.5686C157.978 89.6021 158.009 89.6319 158.048 89.6537C158.084 89.6737 158.126 89.6886 158.168 89.6937C158.211 89.6988 158.254 89.697 158.296 89.6853C158.338 89.6737 158.376 89.6551 158.411 89.6286C158.444 89.602 158.474 89.5704 158.494 89.5319C158.516 89.4951 158.531 89.4537 158.536 89.4104C158.541 89.3686 158.539 89.3253 158.528 89.2835C158.516 89.242 158.498 89.2021 158.471 89.1686C158.111 88.3737 157.934 87.5086 157.951 86.6369C157.968 85.7653 158.179 84.9086 158.571 84.1286C163.231 86.9686 166.991 89.3486 168.151 90.1286C167.931 90.3286 147.071 108.889 139.971 114.41C135.311 113.189 110.851 101.049 103.711 95.3686ZM104.471 106.509C113.531 110.509 134.111 119.789 138.851 120.69C139.671 120.85 139.991 120.909 141.551 119.669C148.211 114.33 169.871 91.6686 170.071 91.9086C170.081 91.9686 170.081 92.0286 170.071 92.0886V96.0886C165.611 99.6686 140.811 125.709 140.411 124.469C138.411 124.469 105.911 111.21 104.251 110.469C104.211 109.629 104.391 107.389 104.471 106.509ZM140.891 134.069C138.891 135.21 108.431 122.829 104.351 120.309C104.198 119.032 104.124 117.752 104.131 116.469C112.891 120.789 138.371 131.549 140.711 131.45C144.131 131.269 168.311 104.049 170.031 102.149C170.051 103.17 169.949 104.19 169.731 105.189C169.391 105.849 142.211 133.33 140.891 134.069Z" fill="white"/>
<path d="M204.139 366L205.663 358.368L206.347 359.16H203.827L204.139 357.6H207.763L206.083 366H204.139ZM207.471 366L207.723 364.74L211.551 361.74C211.871 361.484 212.119 361.26 212.295 361.068C212.479 360.876 212.607 360.696 212.679 360.528C212.751 360.352 212.787 360.172 212.787 359.988C212.787 359.708 212.683 359.484 212.475 359.316C212.267 359.148 211.959 359.064 211.551 359.064C211.215 359.064 210.891 359.14 210.579 359.292C210.275 359.444 210.003 359.66 209.763 359.94L208.455 358.992C208.799 358.528 209.267 358.156 209.859 357.876C210.451 357.596 211.111 357.456 211.839 357.456C212.431 357.456 212.947 357.556 213.387 357.756C213.827 357.948 214.167 358.212 214.407 358.548C214.655 358.884 214.779 359.272 214.779 359.712C214.779 360.04 214.719 360.36 214.599 360.672C214.479 360.984 214.279 361.304 213.999 361.632C213.727 361.952 213.343 362.304 212.847 362.688L209.703 365.124L209.391 364.416H214.143L213.831 366H207.471ZM222.903 366.144C222.055 366.144 221.323 365.992 220.707 365.688C220.099 365.376 219.631 364.948 219.303 364.404C218.975 363.852 218.811 363.216 218.811 362.496C218.811 361.776 218.935 361.112 219.183 360.504C219.431 359.888 219.783 359.356 220.239 358.908C220.703 358.452 221.251 358.096 221.883 357.84C222.523 357.584 223.231 357.456 224.007 357.456C224.855 357.456 225.583 357.612 226.191 357.924C226.807 358.228 227.279 358.656 227.607 359.208C227.935 359.752 228.099 360.384 228.099 361.104C228.099 361.824 227.975 362.492 227.727 363.108C227.479 363.716 227.123 364.248 226.659 364.704C226.203 365.152 225.655 365.504 225.015 365.76C224.383 366.016 223.679 366.144 222.903 366.144ZM223.071 364.488C223.543 364.488 223.967 364.404 224.343 364.236C224.727 364.06 225.051 363.82 225.315 363.516C225.579 363.212 225.779 362.864 225.915 362.472C226.059 362.072 226.131 361.652 226.131 361.212C226.131 360.796 226.043 360.432 225.867 360.12C225.691 359.8 225.431 359.552 225.087 359.376C224.751 359.2 224.335 359.112 223.839 359.112C223.367 359.112 222.943 359.2 222.567 359.376C222.191 359.544 221.867 359.78 221.595 360.084C221.331 360.388 221.127 360.74 220.983 361.14C220.847 361.532 220.779 361.948 220.779 362.388C220.779 362.804 220.867 363.172 221.043 363.492C221.227 363.804 221.487 364.048 221.823 364.224C222.167 364.4 222.583 364.488 223.071 364.488ZM229.024 361.08L230.38 358.2L230.572 359.328C230.252 359.328 229.988 359.228 229.78 359.028C229.572 358.82 229.468 358.56 229.468 358.248C229.468 357.872 229.592 357.572 229.84 357.348C230.088 357.116 230.38 357 230.716 357C231.036 357 231.296 357.1 231.496 357.3C231.704 357.5 231.808 357.76 231.808 358.08C231.808 358.256 231.776 358.42 231.712 358.572C231.656 358.724 231.552 358.916 231.4 359.148L230.212 361.08H229.024ZM236.053 366.144C235.197 366.144 234.457 365.992 233.833 365.688C233.217 365.376 232.741 364.948 232.405 364.404C232.069 363.852 231.901 363.216 231.901 362.496C231.901 361.784 232.025 361.12 232.273 360.504C232.529 359.888 232.885 359.356 233.341 358.908C233.805 358.452 234.353 358.096 234.985 357.84C235.625 357.584 236.337 357.456 237.121 357.456C237.873 357.456 238.537 357.584 239.113 357.84C239.689 358.096 240.125 358.464 240.421 358.944L239.017 360.096C238.801 359.776 238.525 359.532 238.189 359.364C237.853 359.196 237.453 359.112 236.989 359.112C236.517 359.112 236.089 359.196 235.705 359.364C235.321 359.524 234.989 359.756 234.709 360.06C234.437 360.356 234.229 360.704 234.085 361.104C233.941 361.504 233.869 361.928 233.869 362.376C233.869 362.8 233.961 363.172 234.145 363.492C234.329 363.804 234.597 364.048 234.949 364.224C235.301 364.4 235.725 364.488 236.221 364.488C236.653 364.488 237.057 364.412 237.433 364.26C237.809 364.1 238.149 363.852 238.453 363.516L239.605 364.692C239.165 365.204 238.641 365.576 238.033 365.808C237.433 366.032 236.773 366.144 236.053 366.144ZM240.438 366L242.118 357.6H244.074L242.706 364.416H246.918L246.594 366H240.438ZM251.895 366.144C251.047 366.144 250.315 365.992 249.699 365.688C249.091 365.376 248.623 364.948 248.295 364.404C247.967 363.852 247.803 363.216 247.803 362.496C247.803 361.776 247.927 361.112 248.175 360.504C248.423 359.888 248.775 359.356 249.231 358.908C249.695 358.452 250.243 358.096 250.875 357.84C251.515 357.584 252.223 357.456 252.999 357.456C253.847 357.456 254.575 357.612 255.183 357.924C255.799 358.228 256.271 358.656 256.599 359.208C256.927 359.752 257.091 360.384 257.091 361.104C257.091 361.824 256.967 362.492 256.719 363.108C256.471 363.716 256.115 364.248 255.651 364.704C255.195 365.152 254.647 365.504 254.007 365.76C253.375 366.016 252.671 366.144 251.895 366.144ZM252.063 364.488C252.535 364.488 252.959 364.404 253.335 364.236C253.719 364.06 254.043 363.82 254.307 363.516C254.571 363.212 254.771 362.864 254.907 362.472C255.051 362.072 255.123 361.652 255.123 361.212C255.123 360.796 255.035 360.432 254.859 360.12C254.683 359.8 254.423 359.552 254.079 359.376C253.743 359.2 253.327 359.112 252.831 359.112C252.359 359.112 251.935 359.2 251.559 359.376C251.183 359.544 250.859 359.78 250.587 360.084C250.323 360.388 250.119 360.74 249.975 361.14C249.839 361.532 249.771 361.948 249.771 362.388C249.771 362.804 249.859 363.172 250.035 363.492C250.219 363.804 250.479 364.048 250.815 364.224C251.159 364.4 251.575 364.488 252.063 364.488ZM262.08 366.144C261.224 366.144 260.484 365.992 259.86 365.688C259.244 365.376 258.768 364.948 258.432 364.404C258.096 363.852 257.928 363.216 257.928 362.496C257.928 361.784 258.052 361.12 258.3 360.504C258.556 359.888 258.912 359.356 259.368 358.908C259.832 358.452 260.38 358.096 261.012 357.84C261.652 357.584 262.364 357.456 263.148 357.456C263.9 357.456 264.564 357.584 265.14 357.84C265.716 358.096 266.152 358.464 266.448 358.944L265.044 360.096C264.828 359.776 264.552 359.532 264.216 359.364C263.88 359.196 263.48 359.112 263.016 359.112C262.544 359.112 262.116 359.196 261.732 359.364C261.348 359.524 261.016 359.756 260.736 360.06C260.464 360.356 260.256 360.704 260.112 361.104C259.968 361.504 259.896 361.928 259.896 362.376C259.896 362.8 259.988 363.172 260.172 363.492C260.356 363.804 260.624 364.048 260.976 364.224C261.328 364.4 261.752 364.488 262.248 364.488C262.68 364.488 263.084 364.412 263.46 364.26C263.836 364.1 264.176 363.852 264.48 363.516L265.632 364.692C265.192 365.204 264.668 365.576 264.06 365.808C263.46 366.032 262.8 366.144 262.08 366.144ZM268.625 364.08L268.889 361.824L273.665 357.6H276.017L271.589 361.5L270.305 362.592L268.625 364.08ZM266.465 366L268.145 357.6H270.077L268.397 366H266.465ZM272.333 366L269.933 362.34L271.313 361.032L274.517 366H272.333Z" fill="white"/>
</svg>
